<?xml version="1.0" encoding="utf-8"?>
<svg width="120px" height="120px" viewBox="0 0 120 120" version="1.1" xmlns:xlink="http://www.w3.org/1999/xlink" xmlns="http://www.w3.org/2000/svg">
  <desc>Created with Lunacy</desc>
  <g id="pet">
    <path d="M20.9396 6.1745L8.37584 18.5235C8.00154 18.3408 7.63859 18.1427 7.28698 17.9292C3.06247 15.4088 0.354355 11.0215 0.0314094 6.1745C0.0104698 5.85291 0 5.52875 0 5.20201L0 0L12.5638 0L20.9396 6.1745Z" transform="translate(30.60403 33.02013)" id="Path" fill="#F3AF3E" stroke="none" />
    <path d="M16.9128 6.34565L11.6176 9.51848L7.3391 12.0805C3.06595 9.49032 0.326663 4.98131 0 0L10.7518 0L15.8696 5.27218L16.9128 6.34565Z" transform="translate(30.60403 39.46309)" id="Path" fill="#5B3726" stroke="none" />
    <path d="M20.9396 7.31207e-15L20.9396 5.20201C20.9396 5.52875 20.9291 5.85291 20.9082 6.1745C20.5546 11.4551 17.3786 16.1553 12.5638 18.5235L0 6.1745L8.37584 0L20.9396 7.31207e-15Z" transform="translate(68.45638 33.02013)" id="Path" fill="#F3AF3E" stroke="none" />
    <path d="M16.9128 0C16.6091 4.52701 14.2152 8.67467 10.405 11.2752L4.23613 8.26587L0 6.19941L1.04315 5.15067L6.16092 0L16.9128 0Z" transform="translate(72.48322 39.46309)" id="Path" fill="#5B3726" stroke="none" />
    <path d="M45.906 22.8859L45.906 49.9329L0 49.9329L0 22.8859C0 10.2464 10.2764 0 22.953 0C35.6296 0 45.906 10.2464 45.906 22.8859Z" transform="translate(37.04698 33.02013)" id="Path" fill="#F3AF3E" stroke="none" />
    <path d="M2.09396 0L0 8.30802L23.0336 22.8471L23.0336 78.9262L31.4094 78.9262L31.4094 18.693L4.18792 0.692421L2.09396 0Z" transform="translate(84.56376 1.610738)" id="Path" fill="#B9B9B9" stroke="none" />
    <path d="M111.946 0L111.946 12.3826C111.946 23.7804 102.665 33.0201 91.2155 33.0201L20.7308 33.0201C9.2815 33.0201 1.84126e-15 23.7804 0 12.3826L0 2.93278e-14L111.946 0Z" transform="translate(4.026845 86.97987)" id="Path" fill="#6FBBC6" stroke="none" />
    <path d="M4.02584 0L115.974 0Q116.172 0 116.369 0.0193855Q116.566 0.0387711 116.76 0.0773555Q116.954 0.11594 117.143 0.173351Q117.332 0.230763 117.515 0.306449Q117.697 0.382135 117.872 0.475367Q118.046 0.568598 118.211 0.678477Q118.375 0.788356 118.528 0.913825Q118.681 1.03929 118.821 1.17914Q118.961 1.31899 119.086 1.47188Q119.212 1.62476 119.322 1.7892Q119.431 1.95365 119.525 2.12807Q119.618 2.3025 119.694 2.48522Q119.769 2.66794 119.827 2.8572Q119.884 3.04646 119.923 3.24044Q119.961 3.43442 119.981 3.63124Q120 3.82807 120 4.02584L120 4.02784Q120 4.22562 119.981 4.42245Q119.961 4.61927 119.923 4.81325Q119.884 5.00722 119.827 5.19648Q119.769 5.38575 119.694 5.56847Q119.618 5.75119 119.525 5.92561Q119.431 6.10004 119.322 6.26448Q119.212 6.42893 119.086 6.58181Q118.961 6.7347 118.821 6.87455Q118.681 7.01439 118.528 7.13986Q118.375 7.26533 118.211 7.37521Q118.046 7.48509 117.872 7.57832Q117.697 7.67155 117.515 7.74724Q117.332 7.82292 117.143 7.88034Q116.954 7.93775 116.76 7.97633Q116.566 8.01492 116.369 8.0343Q116.172 8.05369 115.974 8.05369L4.02584 8.05369Q3.82807 8.05369 3.63124 8.0343Q3.43442 8.01492 3.24044 7.97633Q3.04646 7.93775 2.8572 7.88034Q2.66794 7.82292 2.48522 7.74724Q2.3025 7.67155 2.12807 7.57832Q1.95365 7.48509 1.7892 7.37521Q1.62476 7.26533 1.47188 7.13986Q1.31899 7.01439 1.17914 6.87455Q1.03929 6.7347 0.913824 6.58181Q0.788356 6.42893 0.678477 6.26448Q0.568598 6.10004 0.475367 5.92561Q0.382135 5.75119 0.306449 5.56847Q0.230763 5.38575 0.173351 5.19648Q0.11594 5.00722 0.0773555 4.81325Q0.0387711 4.61927 0.0193855 4.42244Q0 4.22562 0 4.02784L0 4.02584Q0 3.82807 0.0193855 3.63124Q0.0387711 3.43442 0.0773555 3.24044Q0.11594 3.04646 0.173351 2.8572Q0.230763 2.66794 0.306449 2.48522Q0.382135 2.3025 0.475367 2.12807Q0.568598 1.95365 0.678477 1.7892Q0.788356 1.62476 0.913824 1.47188Q1.03929 1.31899 1.17914 1.17914Q1.31899 1.03929 1.47188 0.913824Q1.62476 0.788356 1.7892 0.678477Q1.95365 0.568598 2.12807 0.475367Q2.3025 0.382135 2.48522 0.306449Q2.66794 0.230763 2.8572 0.173351Q3.04646 0.11594 3.24044 0.0773555Q3.43442 0.0387711 3.63124 0.0193855Q3.82807 0 4.02584 0Z" transform="translate(0 78.92618)" id="Rectangle" fill="#8ACED8" stroke="none" />
    <path d="M9.21855 16.9128L0 3.28715L5.77898 0.657652C9.02434 -0.819136 12.865 0.259552 14.8597 3.20806C16.8545 6.15645 16.4187 10.1103 13.8294 12.5566L9.21855 16.9128Z" transform="translate(74.09396 0)" id="Path" fill="#CBCBCB" stroke="none" />
    <path d="M14.4966 12.6846L14.4966 16.9128C10.1381 16.908 6.24762 14.1213 4.76059 9.93889C2.86417 9.23411 1.20992 7.98066 0 6.33171L0 0L2.07095 0C2.07024 1.80352 2.82368 3.52159 4.1419 4.72236L4.1419 2.11409L8.2838 2.11409L8.2838 6.34228C8.28836 9.8431 11.0673 12.6799 14.4966 12.6846L14.4966 12.6846Z" transform="translate(37.04698 55.57047)" id="Path" fill="#DA922A" stroke="none" />
    <path d="M14.4966 0L14.4966 6.33171C13.2867 7.98066 11.6325 9.23411 9.73605 9.93889C8.24902 14.1213 4.35859 16.908 0 16.9128L0 12.6846C3.42937 12.6799 6.20828 9.8431 6.21285 6.34228L6.21285 2.11409L10.3547 2.11409L10.3547 4.72236C11.673 3.52159 12.4264 1.80352 12.4257 0L14.4966 0Z" transform="translate(68.45638 55.57047)" id="Path" fill="#DA922A" stroke="none" />
    <path d="M4.63532e-13 2.90427e-13L6.54408 3.32704e-13L6.54408 4.13913L5.1003e-13 4.13913L4.63532e-13 2.90427e-13Z" transform="matrix(0.9487658 -0.3159803 0.3159803 0.9487658 49.00515 47.72456)" id="Path" fill="#D18D28" stroke="none" />
    <path d="M-4.59537e-15 4.64985e-13L4.13914 4.64985e-13L4.13914 6.54408L-1.01098e-14 6.54408L-4.59537e-15 4.64985e-13Z" transform="matrix(0.3159802 -0.9487658 0.9487658 0.3159802 63.48351 49.51476)" id="Path" fill="#D18D28" stroke="none" />
    <path d="M18.5235 7.71927L16.6606 4.17368C15.0102 4.95395 13.11 5.10866 11.3443 4.60654L11.3443 0L7.17917 0L7.17917 4.60852C5.41331 5.10994 3.51334 4.95498 1.86287 4.17492L0 7.72051C2.89102 9.0894 6.25554 9.23035 9.26174 8.10852C12.2681 9.22996 15.6327 9.08856 18.5235 7.71927Z" transform="translate(50.73825 60.40268)" id="Path" fill="#744630" stroke="none" />
    <path d="M6.44294 6.04027C6.44432 6.74718 6.24611 7.44183 5.86845 8.05369L0 8.05369L0 0C3.55834 0 6.44294 2.70432 6.44294 6.04027L6.44294 6.04027Z" transform="translate(37.04698 70.06712)" id="Path" fill="#D18D28" stroke="none" />
    <path d="M6.44296 0L6.44296 8.05369L0.574503 8.05369C0.196844 7.44183 -0.00136547 6.74718 7.08022e-06 6.04027C7.08022e-06 2.70432 2.88461 0 6.44296 0Z" transform="translate(76.51007 70.06712)" id="Path" fill="#D18D28" stroke="none" />
    <g id="Group" transform="translate(49.93288 10.4698)">
      <path d="M4.12349 6.97057L3.2588e-06 6.97057C-0.00133003 4.59382 0.406466 2.23502 1.20509 0L5.08349 1.41822C4.44727 3.19849 4.12241 5.07738 4.12349 6.97057L4.12349 6.97057Z" transform="translate(-3.2588E-06 11.55292)" id="Path" fill="#C0F5F9" stroke="none" />
      <path d="M3.3993 9.23279L0 6.86961C1.64222 4.44156 3.78443 2.40237 6.2793 0.892258L7.7483 0L9.86983 3.57947L8.40084 4.47173C6.41363 5.67455 4.70734 7.2988 3.3993 9.23279L3.3993 9.23279Z" transform="translate(3.561407 0.03652519)" id="Path" fill="#C0F5F9" stroke="none" />
      <path d="M4.12349 6.97057L3.2588e-06 6.97057C-0.00133003 4.59382 0.406466 2.23502 1.20509 0L5.08349 1.41822C4.44727 3.19849 4.12241 5.07738 4.12349 6.97057L4.12349 6.97057Z" transform="translate(10.30872 11.55292)" id="Path" fill="#C0F5F9" stroke="none" />
      <path d="M3.3993 9.23279L0 6.86961C1.64222 4.44156 3.78443 2.40237 6.2793 0.892258L7.7483 0L9.86983 3.57947L8.40084 4.47173C6.41363 5.67455 4.70734 7.2988 3.3993 9.23279L3.3993 9.23279Z" transform="translate(13.87013 0.03652519)" id="Path" fill="#C0F5F9" stroke="none" />
      <path d="M4.12349 6.97057L3.2588e-06 6.97057C-0.00133003 4.59382 0.406466 2.23502 1.20509 0L5.08349 1.41822C4.44727 3.19849 4.1224 5.07738 4.12349 6.97057Z" transform="translate(20.61745 11.55292)" id="Path" fill="#C0F5F9" stroke="none" />
    </g>
    <path d="M8.45638 16.9128C13.1267 16.9128 16.9128 13.1267 16.9128 8.45638C16.9128 3.78605 13.1267 0 8.45638 0C3.78605 0 0 3.78605 0 8.45638C0 13.1267 3.78605 16.9128 8.45638 16.9128Z" transform="translate(5.637584 53.95973)" id="Oval" fill="#B3E4E8" stroke="none" />
    <path d="M6.04027 12.0805C9.37622 12.0805 12.0805 9.37622 12.0805 6.04027C12.0805 2.70432 9.37622 0 6.04027 0C2.70432 0 0 2.70432 0 6.04027C0 9.37622 2.70432 12.0805 6.04027 12.0805Z" transform="translate(0 35.43624)" id="Oval" fill="#C0F5F9" stroke="none" />
    <path d="M4.02684 8.05369C6.25081 8.05369 8.05369 6.25081 8.05369 4.02684C8.05369 1.80288 6.25081 0 4.02684 0C1.80288 0 0 1.80288 0 4.02684C0 6.25081 1.80288 8.05369 4.02684 8.05369Z" transform="translate(91.00671 56.37584)" id="Oval" fill="#C0F5F9" stroke="none" />
    <path d="M14.4966 2.01342C14.4966 3.12541 13.5694 4.02685 12.4257 4.02685L0 4.02685L0 0L12.4257 0C13.5694 0 14.4966 0.901441 14.4966 2.01342Z" transform="translate(4.026845 93.42282)" id="Path" fill="#8ACED8" stroke="none" />
    <path d="M4.2953 4.02685L2.14765 4.02685C0.961536 4.02685 0 3.12541 0 2.01342C0 0.901441 0.961536 0 2.14765 0L4.2953 0C5.48142 0 6.44295 0.901441 6.44295 2.01342C6.44295 3.12541 5.48142 4.02685 4.2953 4.02685Z" transform="translate(22.55033 93.42282)" id="Path" fill="#8ACED8" stroke="none" />
    <path d="M2.01342 6.44296C3.1254 6.44296 4.02684 5.48142 4.02684 4.2953L4.02684 2.14765C4.02684 0.961536 3.1254 0 2.01342 0C0.90144 0 0 0.961536 0 2.14765L0 4.2953C0 5.48142 0.90144 6.44296 2.01342 6.44296Z" transform="translate(57.98658 95.03355)" id="Path" fill="#744630" stroke="none" />
    <path d="M4.02684 4.2953L4.02684 2.14765C4.02684 0.961536 3.1254 0 2.01342 0C0.90144 0 0 0.961536 0 2.14765L0 4.2953C0 5.48142 0.90144 6.44296 2.01342 6.44296C3.1254 6.44296 4.02684 5.48142 4.02684 4.2953Z" transform="translate(51.54362 99.0604)" id="Path" fill="#744630" stroke="none" />
    <path d="M2.01342 0C0.901441 0 0 0.961536 0 2.14765L0 4.2953C0 5.48142 0.901441 6.44296 2.01342 6.44296C3.12541 6.44296 4.02685 5.48142 4.02685 4.2953L4.02685 2.14765C4.02685 0.961536 3.12541 0 2.01342 0Z" transform="translate(64.42953 99.0604)" id="Path" fill="#744630" stroke="none" />
    <path d="M10.0671 4.02684L8.05369 4.02684L8.05369 2.01342C8.05369 0.90144 7.15225 0 6.04027 0C4.92829 0 4.02685 0.90144 4.02685 2.01342L4.02685 4.02684L2.01342 4.02684C0.90144 4.02684 0 4.92828 0 6.04027C0 7.15225 0.90144 8.05369 2.01342 8.05369L10.0671 8.05369C11.1791 8.05369 12.0805 7.15225 12.0805 6.04027C12.0805 4.92828 11.1791 4.02684 10.0671 4.02684Z" transform="translate(53.95973 103.8926)" id="Path" fill="#744630" stroke="none" />
    <path d="M2.05817 18.5235C0.921472 18.5235 0 17.602 0 16.4653C0 15.3286 0.921472 14.4072 2.05817 14.4072C8.87521 14.3996 14.3996 8.87521 14.4072 2.05817C14.4072 0.921472 15.3286 0 16.4653 0C17.602 0 18.5235 0.921472 18.5235 2.05817C18.5133 11.1475 11.1475 18.5133 2.05817 18.5235L2.05817 18.5235Z" transform="translate(91.00671 95.03355)" id="Path" fill="#8ACED8" stroke="none" />
    <path d="M4.2953 4.02685L2.14765 4.02685C0.961536 4.02685 0 3.12541 0 2.01342C0 0.901441 0.961536 0 2.14765 0L4.2953 0C5.48142 0 6.44296 0.901441 6.44296 2.01342C6.44296 3.12541 5.48142 4.02685 4.2953 4.02685Z" transform="translate(80.53691 109.5302)" id="Path" fill="#8ACED8" stroke="none" />
    <path d="M8.05369 10.4698L4.02685 10.4698C1.80288 10.4698 0 8.5948 0 6.28188C0 2.81249 2.70432 0 6.04027 0C9.37622 0 12.0805 2.81249 12.0805 6.28188C12.0805 8.5948 10.2777 10.4698 8.05369 10.4698Z" transform="translate(28.99329 70.06712)" id="Path" fill="#F3AF3E" stroke="none" />
    <path d="M8.05369 10.4698L4.02685 10.4698C1.80288 10.4698 0 8.5948 0 6.28188C0 2.81249 2.70432 0 6.04027 0C9.37622 0 12.0805 2.81249 12.0805 6.28188C12.0805 8.5948 10.2777 10.4698 8.05369 10.4698Z" transform="translate(78.92618 70.06712)" id="Path" fill="#F3AF3E" stroke="none" />
    <path d="M4.02684 8.05369C1.80288 8.05369 0 6.25081 0 4.02685L0 0L8.05369 0L8.05369 4.02685C8.05369 6.25081 6.25081 8.05369 4.02684 8.05369Z" transform="translate(56.37584 53.95973)" id="Path" fill="#5B3726" stroke="none" />
    <path d="M0 0L111.946 0L111.946 4.02685L0 4.02685L0 0Z" transform="translate(4.026845 86.97987)" id="Path" fill="#69B0BB" stroke="none" />
    <path d="M1.3229e-13 1.27467e-13L8.27471 0L8.27471 20.6868L1.83736e-15 20.6868L1.3229e-13 1.27467e-13Z" transform="matrix(0.8291351 -0.5590482 0.5590482 0.8291351 66.19979 6.231472)" id="Path" fill="#B9B9B9" stroke="none" />
  </g>
</svg>