<?xml version="1.0" encoding="utf-8"?>
<svg width="131px" height="31px" viewBox="0 0 131 31" version="1.1" xmlns:xlink="http://www.w3.org/1999/xlink" xmlns="http://www.w3.org/2000/svg">
  <desc>Created with Lunacy</desc>
  <defs>
    <path d="M0 0L20.6322 0L20.6322 19.4411L0 19.4411L0 0Z" transform="translate(0.0004532807 0.2149056)" id="path_1" />
    <path d="M0 0L17.2555 0L17.2555 13.5772L0 13.5772L0 0Z" transform="translate(0.315504 0.339192)" id="path_2" />
    <path d="M0.126 0.126L0.378 0.126L0.378 0.378L0.126 0.378L0.126 0.126Z" transform="translate(0.378 0.126)" id="path_3" />
    <clipPath id="mask_1">
      <use xlink:href="#path_1" />
    </clipPath>
    <clipPath id="mask_2">
      <use xlink:href="#path_2" />
    </clipPath>
    <clipPath id="mask_3">
      <use xlink:href="#path_3" />
    </clipPath>
  </defs>
  <g id="Group-51">
    <g id="Group-50">
      <path d="M0.22932 0.309204L0.22932 0.309204C0.237384 0.289548 0.24444 0.269892 0.253008 0.250236C0.258552 0.237132 0.266616 0.21798 0.27468 0.194796C0.266616 0.21798 0.258552 0.237132 0.253008 0.250236C0.24444 0.269892 0.237384 0.289548 0.22932 0.309204" transform="translate(11.76356 11.74789)" id="Fill-1" fill="#F6893D" stroke="none" />
      <path d="M0.397908 0.0856799C0.300132 0.191016 0.202356 0.302904 0.106092 0.41832C0.202356 0.302904 0.300132 0.191016 0.397908 0.0856799" transform="translate(11.33753 11.63872)" id="Fill-3" fill="#F6893D" stroke="none" />
      <path d="M0.299124 0.297612C0.287028 0.274428 0.268884 0.252252 0.244188 0.231084C0.23058 0.2205 0.217476 0.212436 0.204876 0.206388C0.217476 0.212436 0.23058 0.2205 0.244188 0.231084C0.268884 0.252252 0.287028 0.274428 0.299124 0.297612" transform="translate(11.73413 11.45088)" id="Fill-5" fill="#F6893D" stroke="none" />
      <path d="M0.209664 0.358092C0.237384 0.287028 0.265608 0.216972 0.294336 0.145908C0.265608 0.216972 0.237384 0.287028 0.209664 0.358092" transform="translate(11.69855 11.91113)" id="Fill-7" fill="#FFBC48" stroke="none" />
      <path d="M17.5906 1.20263C17.5906 1.20263 16.5594 0.0217559 16.4475 0.0928199C15.8145 0.494004 14.5485 1.00909 13.5581 1.35282C13.5571 1.879 13.5561 2.39912 13.5546 2.91824C13.5344 2.92328 13.5153 2.92933 13.4951 2.93437C12.3787 3.21913 11.0804 3.4298 9.58255 3.50339C9.40464 3.51246 9.2232 3.51901 9.04025 3.52405C8.83462 3.5296 8.62546 3.53312 8.41226 3.53363L8.40118 3.53363C8.21772 3.53363 8.0383 3.5306 7.85988 3.52657C7.86744 3.49129 7.87198 3.46912 7.87399 3.46004C7.87198 3.46912 7.86744 3.49129 7.85988 3.52657C6.5021 3.49432 5.28948 3.34261 4.21394 3.11833C4.33591 2.55738 4.45738 1.98584 4.57783 1.40372C3.60914 1.25656 1.31846 0.21882 0.553896 0.000587917C0.426384 -0.0357001 0 1.61994 0 1.61994C0.059976 3.38545 0.270144 7.21484 0.98784 9.19758C1.93939 11.829 5.20582 14.5783 6.94512 15.556C9.4248 16.9501 11.3425 15.986 12.8434 15.0697C15.5308 13.4292 17.8668 10.4399 17.8668 10.4399L17.8668 2.00953C17.8668 1.70512 17.763 1.4259 17.5906 1.20263" transform="translate(2.221632 11.37026)" id="Fill-9" fill="#FFBC48" stroke="none" />
      <path d="M0.339192 0.145908L0.339192 0.145908C0.280728 0.21546 0.222768 0.284508 0.164808 0.358092C0.222768 0.284508 0.280728 0.21546 0.339192 0.145908" transform="translate(11.10438 11.91118)" id="Fill-11" fill="#FFBC48" stroke="none" />
      <g id="Group-15" transform="translate(0.504 10.74881)">
        <path d="M0 0L20.6322 0L20.6322 19.4411L0 19.4411L0 0Z" transform="translate(0.0004532807 0.2149056)" id="Clip-14" fill="none" stroke="none" />
        <g clip-path="url(#mask_1)">
          <path d="M15.4587 0L19.3007 0C20.036 0 20.6322 0.596232 20.6322 1.33157L20.6322 10.8128C20.6322 11.5991 20.3097 12.4947 19.6741 13.4734C19.6464 13.5153 19.6172 13.5556 19.5859 13.5944C17.3568 16.3493 13.0476 19.4363 10.641 19.4413L10.6344 19.4413C7.46777 19.4403 0 13.8645 0 10.018L0 1.33258C-0.000503681 0.59724 0.595728 0 1.33056 0L6.04649 0C5.98248 0.165816 5.91595 0.328608 5.8464 0.487872C5.75568 0.69552 5.65891 0.896616 5.56063 1.09318C5.52434 1.16424 5.49007 1.23631 5.45378 1.30536C5.36206 1.47924 5.26831 1.64758 5.17205 1.81138C4.71038 1.78668 3.61872 1.61179 3.25433 1.575C3.19334 1.56895 3.16462 1.64304 3.21905 1.66975C3.72103 1.91268 4.24368 2.13444 4.76683 2.30782C4.79455 2.31689 4.82328 2.32546 4.8515 2.33453C5.13223 2.42525 5.41296 2.50286 5.68966 2.56082C7.43198 2.9237 8.49694 3.12278 9.79675 3.11724C9.9031 3.11674 10.0099 3.11522 10.1198 3.1122C10.3643 3.10514 10.6203 3.09053 10.8909 3.06986C10.9927 3.0618 11.0966 3.05323 11.2029 3.04315C11.713 2.99578 12.279 2.92471 12.9362 2.82946C13.4981 2.74781 14.0304 2.63894 14.5359 2.51294C14.7869 2.45045 15.0303 2.38241 15.2677 2.31084C15.8463 2.13746 16.3825 1.94141 16.8739 1.73477C16.9309 1.71058 16.9042 1.62792 16.8437 1.63951C16.4989 1.70554 15.8105 1.79021 15.2717 1.84716C15.2727 1.67378 15.2747 1.49587 15.2803 1.30536C15.2818 1.23682 15.2848 1.16575 15.2878 1.09318C15.2929 0.948528 15.3014 0.797328 15.3125 0.633528C15.3176 0.567 15.3256 0.504504 15.3347 0.444024C15.3604 0.27468 15.4038 0.128016 15.4587 0ZM18.7453 13.0591C19.2679 12.2653 19.5839 11.5028 19.5839 10.8466L19.5839 2.41567C19.5839 2.11176 19.4801 1.83254 19.3077 1.60927C18.3884 2.20298 17.0483 2.8723 15.2122 3.34051C14.0959 3.62578 12.7976 3.83645 11.2997 3.91003C11.1218 3.9191 10.9413 3.92566 10.7574 3.9307C10.5517 3.93624 10.3426 3.93977 10.1294 3.94027L10.1183 3.94027C9.93485 3.94027 9.75542 3.93725 9.57751 3.93322C7.48944 3.88382 5.74157 3.55219 4.31575 3.10716C3.28356 2.7851 2.42021 2.40358 1.71713 2.02658C1.50091 1.91117 1.30032 1.79575 1.11434 1.68235L1.11434 9.85572C1.11434 13.1317 8.01562 18.3023 10.7523 18.2967C12.6514 18.2932 16.5539 15.6784 18.7453 13.0591Z" transform="translate(0.0004529618 0.2149056)" id="Fill-13" fill="#F6893D" fill-rule="evenodd" stroke="none" />
        </g>
      </g>
      <g id="Group-18" transform="translate(5.04 0.164808)">
        <path d="M0 0L17.2555 0L17.2555 13.5772L0 13.5772L0 0Z" transform="translate(0.315504 0.339192)" id="Clip-17" fill="none" stroke="none" />
        <g clip-path="url(#mask_2)">
          <path d="M12.7552 2.67115C12.7552 2.67115 15.6416 3.42261 15.8785 3.42261C16.1159 3.42261 17.8164 3.81775 17.0654 5.39981C16.314 6.98136 15.7208 8.76048 12.162 9.63038C12.162 9.63038 11.025 9.48977 10.6077 10.46C10.5528 10.588 10.5094 10.7346 10.4837 10.904C10.4746 10.9645 10.4666 11.027 10.4615 11.0935C10.4504 11.2568 10.4419 11.4085 10.4363 11.5531C10.4338 11.6257 10.4308 11.6963 10.4293 11.7653C10.4237 11.9558 10.4217 12.1337 10.4207 12.3066C10.4197 12.4634 10.4187 12.6166 10.4162 12.7708C10.1793 12.8424 9.93586 12.9104 9.68486 12.9729C9.17935 13.0989 8.64713 13.2073 8.08466 13.2889C7.42795 13.3847 6.86196 13.4557 6.35191 13.5026C6.24557 13.5132 6.14174 13.5213 6.03994 13.5298C6.08227 13.3146 6.13066 13.0989 6.18862 12.8817C6.28639 12.5123 6.40685 12.1398 6.5525 11.7653C6.58022 11.6943 6.60895 11.6242 6.63718 11.5531C6.64524 11.5335 6.6528 11.5138 6.66086 11.4942C6.66641 11.4816 6.67498 11.4619 6.68254 11.4392C6.70068 11.3868 6.71479 11.3137 6.6775 11.2447C6.6654 11.2215 6.64776 11.1993 6.62256 11.1782C6.60946 11.1676 6.59585 11.1595 6.58325 11.1535C6.57065 11.1479 6.55704 11.1449 6.54494 11.1434C6.53184 11.1424 6.51974 11.1429 6.50765 11.1449C6.49555 11.1464 6.48446 11.1499 6.47338 11.1545C6.4512 11.1635 6.43154 11.1756 6.41592 11.1882C6.39979 11.2003 6.38719 11.2124 6.38014 11.2205C6.28186 11.3258 6.18458 11.4377 6.08832 11.5531C6.02935 11.6227 5.97139 11.6922 5.91394 11.7653C5.86656 11.8263 5.81918 11.8888 5.77282 11.9533C5.67907 12.0823 5.58785 12.2184 5.50015 12.3646C5.32426 12.6554 5.16146 12.9825 5.02034 13.3605C4.99464 13.4305 4.97045 13.5036 4.94575 13.5772C3.64594 13.5822 2.58098 13.3837 0.838656 13.0203C0.56196 12.9628 0.281232 12.8852 0 12.7945C0.10836 12.6262 0.215712 12.4518 0.321048 12.2713C0.417312 12.1075 0.511056 11.9392 0.602784 11.7653C0.639072 11.6958 0.673344 11.6242 0.709632 11.5531C0.807912 11.3566 0.904176 11.1555 0.9954 10.9478C1.06495 10.7886 1.13148 10.6253 1.19549 10.46C1.43791 9.83198 1.63649 9.15914 1.76249 8.44447C1.76249 8.44447 2.30076 8.39205 4.25527 7.58817C6.21029 6.7848 6.88363 4.61256 6.99199 3.61313C7.10086 2.6142 6.77527 3.26587 6.77527 3.26587C5.60246 7.65218 1.68084 7.7177 1.67832 7.71821C1.56442 6.15077 1.67126 2.4504 4.9261 0.699501C8.45611 -1.19806 11.4106 1.36629 11.4106 1.36629C11.4106 1.36629 12.7552 1.60368 12.7552 2.67115ZM10.2534 4.03497C10.2534 4.34997 10.5089 4.605 10.8239 4.605C11.1389 4.605 11.3939 4.34997 11.3939 4.03497C11.3939 3.71997 11.1389 3.46445 10.8239 3.46445C10.5089 3.46445 10.2534 3.71997 10.2534 4.03497Z" transform="translate(0.315504 0.3390914)" id="Fill-16" fill="#D97A04" fill-rule="evenodd" stroke="none" />
        </g>
      </g>
      <path d="M0.260169 0.0301977C0.554001 0.124446 0.851361 0.206094 1.14973 0.277662C1.74445 0.426846 2.34975 0.528654 2.95355 0.61635C3.55784 0.70203 4.16768 0.749406 4.7755 0.79275C5.08093 0.801822 5.38534 0.82299 5.69077 0.82803C5.99619 0.82803 6.30162 0.842646 6.60704 0.834582C7.82974 0.825006 9.04842 0.73731 10.261 0.569982C10.8653 0.476742 11.4696 0.370398 12.0684 0.227766C12.6686 0.0901737 12.7654 0.347214 12.1833 0.590142C11.5961 0.82299 10.9918 1.01501 10.3765 1.1642C9.14518 1.46005 7.87712 1.59865 6.61258 1.60923C5.34906 1.61981 4.07747 1.50238 2.84267 1.20855C2.22476 1.06642 1.61744 0.877421 1.03079 0.637518C0.740985 0.509502 0.451689 0.38199 0.175497 0.226758C-0.100695 0.0740457 -0.0346706 -0.0625383 0.260169 0.0301977" transform="translate(4.568906 17.50447)" id="Fill-19" fill="#F6893D" stroke="none" />
      <path d="M0.233352 0.253008C0.245448 0.250992 0.258048 0.250488 0.270648 0.251496C0.258048 0.250488 0.245448 0.250992 0.233352 0.253008" transform="translate(11.6296 11.39559)" id="Fill-21" fill="#D97A04" stroke="none" />
      <path d="M0.60732 0C0.450072 0.16884 0.294336 0.349272 0.14112 0.544824C0.093744 0.605808 0.046872 0.668304 0 0.732816C0.046872 0.668304 0.093744 0.605808 0.14112 0.544824C0.294336 0.349272 0.450576 0.16884 0.60732 0" transform="translate(11.12812 11.7244)" id="Fill-23" fill="#D97A04" stroke="none" />
      <path d="M0.223272 0.268632C0.238896 0.256536 0.258552 0.243936 0.280728 0.235368C0.258552 0.243936 0.238896 0.256536 0.223272 0.268632" transform="translate(11.5481 11.42326)" id="Fill-25" fill="#D97A04" stroke="none" />
      <path d="M0.012348 0.996408C0.152964 0.618408 0.31626 0.291312 0.491652 0C0.31626 0.291312 0.152964 0.618408 0.012348 0.996408" transform="translate(10.3637 12.86798)" id="Fill-27" fill="#D97A04" stroke="none" />
      <g id="Group-31" transform="translate(0 29.90081)">
        <path d="M0.126 0.126L0.378 0.126L0.378 0.378L0.126 0.378L0.126 0.126Z" transform="translate(0.378 0.126)" id="Clip-30" fill="none" stroke="none" />
      </g>
      <path d="M45.5084 6.87658C45.7831 6.62004 45.9322 6.31714 45.9514 5.97492C45.9705 5.62716 45.8486 5.30914 45.5966 5.03899C45.3526 4.75776 45.0492 4.60555 44.6944 4.5859C44.2988 4.56674 44.0155 4.7371 43.7625 4.93013L39.4392 8.35834L39.4392 1.36836C39.4392 0.969192 39.3097 0.638064 39.0557 0.383544C38.8006 0.129024 38.4695 0 38.0708 0C37.6717 0 37.34 0.129024 37.0855 0.384048C36.831 0.638568 36.702 0.969696 36.702 1.36836L36.702 15.2258C36.702 15.624 36.831 15.9561 37.0855 16.2112C37.34 16.4652 37.6717 16.5942 38.0708 16.5942C38.4695 16.5942 38.8006 16.4652 39.0557 16.2112C39.3097 15.9566 39.4392 15.625 39.4392 15.2258L39.4392 12.7174L43.5796 16.2827C43.8381 16.501 44.0906 16.6814 44.5609 16.6814L44.5699 16.6814C44.9368 16.6799 45.2574 16.5352 45.522 16.2525C45.8561 15.8941 45.8697 15.4975 45.8748 15.3493C45.8864 15.0026 45.712 14.6815 45.6067 14.5459C45.5074 14.4194 45.399 14.3262 45.3914 14.3196L40.9623 10.4827L45.4852 6.89623C45.4938 6.88968 45.5008 6.88363 45.5084 6.87658ZM98.5967 14.2254L98.5972 14.2264C98.828 14.4855 98.945 14.8151 98.945 15.2057C98.945 15.6114 98.7837 15.9622 98.4783 16.2212C98.1875 16.4687 97.8155 16.5942 97.3745 16.5942L97.0091 16.5942C96.2632 16.5942 95.5813 16.4002 94.982 16.0186C94.3868 15.6391 93.913 15.117 93.5728 14.4663C93.2352 13.8207 93.0638 13.0864 93.0638 12.284L93.0638 7.64669L92.5049 7.64669C92.1254 7.64669 91.8073 7.53178 91.5614 7.30447C91.3099 7.07263 91.1768 6.7667 91.1768 6.42046C91.1768 6.0475 91.3099 5.72846 91.5609 5.49612C91.8073 5.26882 92.1248 5.1539 92.5049 5.1539L93.0638 5.1539L93.0638 2.60618C93.0638 2.20702 93.1964 1.87186 93.4574 1.61129C93.719 1.34971 94.0537 1.21716 94.4528 1.21716C94.851 1.21716 95.1851 1.34971 95.4472 1.61078C95.7088 1.87286 95.8408 2.20752 95.8408 2.60618L95.8408 5.1539L97.1916 5.1539C97.5716 5.1539 97.8891 5.26882 98.1356 5.49612C98.387 5.72897 98.5196 6.048 98.5196 6.42046C98.5196 6.7662 98.3865 7.07162 98.1361 7.30397C97.8891 7.53178 97.5716 7.64669 97.1916 7.64669L95.8408 7.64669L95.8408 12.284C95.8408 12.7406 95.9598 13.1075 96.2037 13.4069C96.4315 13.6871 96.6871 13.8172 97.0091 13.8172L97.6991 13.8172C98.0463 13.8172 98.3568 13.9583 98.5967 14.2254ZM64.1215 13.8169L63.4315 13.8169C63.1094 13.8169 62.8534 13.6869 62.6261 13.4072C62.3821 13.1078 62.2632 12.7404 62.2632 12.2842L62.2632 7.64694L63.6139 7.64694C63.9934 7.64694 64.3115 7.53152 64.5579 7.30372C64.8089 7.07137 64.942 6.76645 64.942 6.4202C64.942 6.04825 64.8094 5.72872 64.5574 5.49637C64.3115 5.26907 63.9939 5.15365 63.6139 5.15365L62.2632 5.15365L62.2632 2.60593C62.2632 2.20727 62.1312 1.87261 61.8696 1.61053C61.608 1.34996 61.2733 1.21741 60.8757 1.21741C60.4765 1.21741 60.1419 1.34996 59.8798 1.61104C59.6187 1.87211 59.4867 2.20676 59.4867 2.60593L59.4867 5.15365L58.9272 5.15365C58.5472 5.15365 58.2302 5.26907 57.9832 5.49637C57.7322 5.72821 57.5997 6.04775 57.5997 6.4202C57.5997 6.76696 57.7322 7.07238 57.9837 7.30422C58.2302 7.53152 58.5477 7.64694 58.9272 7.64694L59.4867 7.64694L59.4867 12.2842C59.4867 13.0866 59.658 13.8209 59.9952 14.4661C60.3354 15.1167 60.8097 15.6389 61.4044 16.0184C62.0031 16.4004 62.6851 16.5945 63.4315 16.5945L63.7969 16.5945C64.2379 16.5945 64.6098 16.469 64.9006 16.2215C65.2061 15.9624 65.3678 15.6117 65.3678 15.2059C65.3678 14.8148 65.2504 14.4852 65.0186 14.2257C64.7797 13.958 64.4687 13.8169 64.1215 13.8169ZM31.2331 4.66649C32.0818 4.66649 32.8721 4.8318 33.5807 5.15738C34.2888 5.48297 34.9324 5.97537 35.4929 6.6215C35.8311 7.00908 35.8341 7.37952 35.7766 7.62245C35.702 7.94148 35.503 8.21968 35.1854 8.4485C34.9108 8.64506 34.5917 8.71209 34.2621 8.64355C33.9607 8.58156 33.685 8.42784 33.4441 8.18692C32.8413 7.54785 32.1211 7.24142 31.2331 7.24142C30.6157 7.24142 30.0663 7.38355 29.6011 7.66428C29.1349 7.94501 28.7645 8.34266 28.5014 8.84565C28.2338 9.35721 28.0977 9.97461 28.0977 10.6812C28.0977 11.346 28.2363 11.9417 28.509 12.4523C28.7811 12.9588 29.1621 13.3645 29.6435 13.6589C30.1218 13.9522 30.6913 14.1009 31.3344 14.1009C31.7668 14.1009 32.1483 14.0495 32.4684 13.9461C32.7799 13.8463 33.0697 13.6881 33.3297 13.4754C33.6054 13.2521 33.8992 13.1251 34.2032 13.0984C34.5292 13.0692 34.8357 13.1664 35.0862 13.3781C35.3886 13.6271 35.5634 13.925 35.6023 14.2601C35.6421 14.6094 35.5211 14.9365 35.2515 15.2061C34.2006 16.1844 32.8862 16.6758 31.3344 16.6758C30.1893 16.6758 29.1536 16.4092 28.2549 15.8835C27.3553 15.3583 26.6401 14.6366 26.1296 13.737C25.6195 12.8393 25.3605 11.8112 25.3605 10.6812C25.3605 9.52605 25.6155 8.48177 26.1175 7.57809C26.6225 6.66989 27.3246 5.94967 28.2045 5.43761C29.084 4.92605 30.1031 4.66649 31.2331 4.66649ZM21.7215 5.43614L21.7215 5.43665C22.6146 5.9477 23.3267 6.66389 23.8388 7.56454C24.3493 8.46317 24.6079 9.5125 24.6079 10.6813C24.6079 11.8369 24.3529 12.8777 23.8499 13.7753C23.3449 14.6775 22.6347 15.3937 21.7411 15.9057C20.8496 16.4168 19.8108 16.6753 18.6541 16.6753C17.4975 16.6753 16.4587 16.4168 15.5666 15.9057C14.6736 15.3942 13.9604 14.6785 13.4493 13.7773C12.9388 12.8792 12.6797 11.8374 12.6797 10.6813C12.6797 9.51199 12.9388 8.46317 13.4498 7.56454C13.9604 6.66439 14.6736 5.94821 15.5666 5.43665C16.4592 4.92559 17.498 4.66654 18.6541 4.66654C19.7967 4.66654 20.8284 4.92559 21.7215 5.43614ZM54.8224 5.42228C54.0085 4.9208 53.0277 4.66679 51.9073 4.66679C50.7768 4.66679 49.7578 4.92584 48.8788 5.43791C47.9988 5.94997 47.2997 6.66666 46.8018 7.56882C46.3064 8.46644 46.0554 9.51325 46.0554 10.681C46.0554 11.8387 46.3215 12.882 46.8466 13.7816C47.3728 14.6823 48.1102 15.3985 49.039 15.9085C49.9629 16.4175 51.0303 16.6756 52.2117 16.6756C52.8725 16.6756 53.5715 16.5531 54.2892 16.3107C55.0094 16.0683 55.6248 15.7472 56.1112 15.3607C56.526 15.0441 56.5965 14.6712 56.5824 14.4141C56.5628 14.0679 56.3974 13.7554 56.085 13.4792C55.8375 13.2701 55.5457 13.1698 55.2141 13.1778C54.9001 13.1874 54.6077 13.2902 54.3411 13.4858C54.1012 13.6657 53.7761 13.8285 53.3755 13.9706C52.9783 14.1107 52.5867 14.1823 52.2117 14.1823C51.5097 14.1823 50.8827 14.0281 50.3469 13.7237C49.8137 13.4208 49.3893 13.0029 49.0859 12.4818C48.9569 12.259 48.8546 12.0201 48.78 11.7656L56.026 11.7656C56.3954 11.7656 56.7079 11.6447 56.9549 11.4078C57.2028 11.1699 57.3334 10.8554 57.3334 10.4986C57.3334 9.37818 57.1197 8.37119 56.6973 7.50431C56.2679 6.62483 55.6374 5.92477 54.8224 5.42228ZM85.4848 4.66679C86.6052 4.66679 87.586 4.9208 88.4 5.42228C89.215 5.92477 89.846 6.62483 90.2749 7.50431C90.6972 8.37119 90.9114 9.37818 90.9114 10.4986C90.9114 10.8554 90.7804 11.1699 90.5324 11.4078C90.2859 11.6447 89.973 11.7656 89.604 11.7656L82.3575 11.7656C82.4321 12.0201 82.5344 12.2595 82.6635 12.4813C82.9669 13.0029 83.3912 13.4208 83.9245 13.7237C84.4602 14.0281 85.0872 14.1823 85.7893 14.1823C86.1642 14.1823 86.5558 14.1107 86.953 13.9706C87.3537 13.8285 87.6788 13.6657 87.9187 13.4858C88.1853 13.2902 88.4776 13.1874 88.7916 13.1778C89.1252 13.1698 89.415 13.2701 89.6625 13.4792C89.975 13.7554 90.1408 14.0679 90.16 14.4141C90.1741 14.6712 90.1035 15.0441 89.6887 15.3607C89.2024 15.7472 88.587 16.0683 87.8668 16.3107C87.1491 16.5531 86.45 16.6756 85.7893 16.6756C84.6079 16.6756 83.5404 16.4175 82.6166 15.9085C81.6877 15.3985 80.9504 14.6823 80.4242 13.7816C79.899 12.882 79.6329 11.8387 79.6329 10.681C79.6329 9.51325 79.8839 8.46644 80.3793 7.56882C80.8773 6.66666 81.5763 5.94997 82.4563 5.43791C83.3353 4.92584 84.3544 4.66679 85.4848 4.66679ZM9.00396 5.45913C8.11087 4.93295 7.08422 4.66684 5.95375 4.66684C4.83638 4.66684 3.81679 4.93295 2.9232 5.45913C2.03162 5.98379 1.31695 6.70905 0.799848 7.61423C0.283248 8.51891 0.014112 9.54909 0 10.6811L0 19.933C0 20.3322 0.135576 20.6709 0.403704 20.9385C0.671832 21.2061 1.00951 21.3422 1.40868 21.3422C1.82347 21.3422 2.16619 21.2046 2.42928 20.9334C2.68733 20.6658 2.81786 20.3291 2.81786 19.933L2.81786 15.3658C3.17218 15.6697 3.5653 15.9282 3.99168 16.1394C4.70988 16.4952 5.5062 16.6756 6.35947 16.6756C7.41384 16.6756 8.37598 16.407 9.21665 15.8778C10.0528 15.3511 10.7211 14.6284 11.2039 13.7288C11.6842 12.8326 11.9282 11.8075 11.9282 10.6811C11.9282 9.5511 11.6616 8.51891 11.1364 7.61221C10.6122 6.70753 9.89453 5.98379 9.00396 5.45913ZM75.5507 5.45913C74.6576 4.93295 73.6309 4.66684 72.4999 4.66684C71.3826 4.66684 70.3635 4.93295 69.4699 5.45913C68.5783 5.98379 67.8637 6.70905 67.346 7.61423C66.8299 8.51891 66.5608 9.54909 66.5462 10.6811L66.5462 19.933C66.5462 20.3322 66.6823 20.6709 66.9504 20.9385C67.2185 21.2061 67.5562 21.3422 67.9554 21.3422C68.3702 21.3422 68.7129 21.2046 68.976 20.9334C69.234 20.6658 69.3646 20.3291 69.3646 19.933L69.3646 15.3658C69.7189 15.6697 70.112 15.9282 70.5384 16.1394C71.2566 16.4952 72.0529 16.6756 72.9062 16.6756C73.9605 16.6756 74.9227 16.407 75.7634 15.8778C76.5995 15.3511 77.2678 14.6284 77.7501 13.7288C78.2309 12.8326 78.4744 11.8075 78.4744 10.6811C78.4744 9.5511 78.2083 8.51891 77.6831 7.61221C77.1589 6.70753 76.4412 5.98379 75.5507 5.45913ZM51.9073 7.16008C52.5056 7.16008 53.0166 7.29666 53.4264 7.56529C53.8457 7.84098 54.1612 8.20638 54.3905 8.68266C54.4953 8.9014 54.579 9.13928 54.6395 9.39431L48.8097 9.39431C48.8672 9.19825 48.9362 9.0148 49.0184 8.84545C49.2724 8.31827 49.6348 7.91406 50.1257 7.61166C50.6115 7.31178 51.2108 7.16008 51.9073 7.16008ZM87.0039 7.56529C86.5942 7.29666 86.0831 7.16008 85.4848 7.16008C84.7888 7.16008 84.1891 7.31178 83.7032 7.61166C83.2128 7.91406 82.8504 8.31827 82.5959 8.84545C82.5138 9.0148 82.4447 9.19825 82.3878 9.39431L88.217 9.39431C88.1566 9.13979 88.0734 8.9014 87.9681 8.68266C87.7387 8.20638 87.4232 7.84098 87.0039 7.56529ZM5.95375 7.24127C6.57014 7.24127 7.12505 7.38995 7.60385 7.68277C8.08668 7.97913 8.47627 8.38989 8.76053 8.90397C9.0463 9.42107 9.19094 10.0193 9.19094 10.6811C9.19094 11.3297 9.0463 11.9209 8.76103 12.438C8.47627 12.9526 8.08668 13.3634 7.60385 13.6587C7.12555 13.952 6.57065 14.1007 5.95375 14.1007C5.34946 14.1007 4.79707 13.9515 4.31122 13.6577C3.82284 13.3629 3.43526 12.9536 3.15857 12.4405C2.87834 11.9239 2.73672 11.3322 2.73672 10.6811C2.73672 10.0173 2.87834 9.41805 3.15857 8.90145C3.43526 8.38888 3.82334 7.97963 4.31122 7.68429C4.79707 7.39045 5.34996 7.24127 5.95375 7.24127ZM72.4999 7.24127C73.1168 7.24127 73.6717 7.38995 74.1506 7.68277C74.6334 7.97913 75.023 8.38989 75.3072 8.90397C75.593 9.42107 75.7376 10.0193 75.7376 10.6811C75.7376 11.3297 75.593 11.9209 75.3077 12.438C75.023 12.9526 74.6334 13.3634 74.1506 13.6587C73.6722 13.952 73.1173 14.1007 72.4999 14.1007C71.8962 14.1007 71.3438 13.9515 70.8579 13.6577C70.3695 13.3629 69.982 12.9536 69.7048 12.4405C69.425 11.9239 69.2834 11.3322 69.2834 10.6811C69.2834 10.0173 69.425 9.41805 69.7048 8.90145C69.982 8.38888 70.37 7.97963 70.8579 7.68429C71.3438 7.39045 71.8967 7.24127 72.4999 7.24127ZM16.9804 13.6675C17.4597 13.9553 18.0226 14.1009 18.6541 14.1009C19.2857 14.1009 19.8486 13.9553 20.3284 13.6675C20.8082 13.3792 21.1888 12.9775 21.4589 12.473C21.7321 11.9624 21.8712 11.3597 21.8712 10.6813C21.8712 10.0024 21.7321 9.39557 21.4579 8.87846C21.1878 8.36741 20.8072 7.96219 20.3284 7.67491C19.8486 7.38713 19.2857 7.24147 18.6541 7.24147C18.0226 7.24147 17.4597 7.38713 16.9804 7.67491C16.5001 7.9627 16.116 8.36842 15.8388 8.88149C15.5586 9.39809 15.417 10.0034 15.417 10.6813C15.417 11.3586 15.5581 11.9599 15.8378 12.4695C16.115 12.9765 16.4995 13.3792 16.9804 13.6675Z" transform="translate(31.94246 4.710485)" id="Combined-Shape" fill="#797979" fill-rule="evenodd" stroke="none" />
    </g>
  </g>
</svg>