<?xml version="1.0" encoding="utf-8"?>
<svg width="344px" height="401px" viewBox="0 0 344 401" version="1.1" xmlns:xlink="http://www.w3.org/1999/xlink" xmlns="http://www.w3.org/2000/svg">
  <desc>Created with Lunacy</desc>
  <defs>
    <path d="M0 0L302.404 0L302.404 10.3754L0 10.3754L0 0Z" transform="translate(0 0.1863769)" id="path_1" />
    <path d="M0.057128 0.238521C0.0587323 0.241177 0.0608714 0.243302 0.0630105 0.245427L0.0630105 0.245427C3.29784 3.38817 7.04551 5.92106 8.36479 10.4806L8.36479 10.4806C9.43433 14.1779 8.73485 18.1335 7.02091 21.5211L7.02091 21.5211C6.98989 21.5822 7.07492 21.6342 7.11343 21.5763L7.11343 21.5763C8.44126 19.5465 9.24716 17.249 9.44235 14.885L9.44235 14.885C9.46695 14.588 9.48192 14.29 9.48674 13.9909L9.48674 13.9909C9.50599 12.8732 9.3878 11.7454 9.12309 10.6299L9.12309 10.6299C8.03697 6.05599 4.25401 2.45268 0.352856 0.0366547L0.352856 0.0366547C0.336813 0.0260302 0.317561 0.0180617 0.297775 0.0122182L0.297775 0.0122182C0.269432 0.00371859 0.23788 0 0.206864 0L0.206864 0C0.0608714 0 -0.0829819 0.0897775 0.057128 0.238521" transform="translate(0.1082498 0.1450251)" id="path_2" />
    <clipPath id="mask_1">
      <use xlink:href="#path_1" />
    </clipPath>
    <clipPath id="mask_2">
      <use xlink:href="#path_2" />
    </clipPath>
  </defs>
  <g id="Group-2" transform="translate(-15.5 0.5)">
    <g id="Group">
      <g id="Group-371">
        <g id="Group-370">
          <path d="M0 0L375 0L375 400L0 400L0 0Z" id="Combined-Shape" fill="#FFBB49" stroke="none" />
        </g>
      </g>
      <g id="Group-369" transform="translate(37 119)">
        <g id="Group-248">
          <g id="Group-3" transform="translate(0.9326172 0)">
            <path d="M273.212 211.732C273.212 211.732 301.994 177.288 268.414 147.46C268.414 147.46 298.569 113.741 279.379 75.4836C260.19 37.2259 223.183 40.4682 193.715 48.2498C164.246 56.0308 125.868 52.14 96.3994 21.6639C66.9307 -8.81284 32.665 -2.3282 19.6444 11.9369C6.62317 26.2031 3.19622 55.3823 17.5884 84.5615C31.9801 113.741 23.7557 132.546 11.42 146.812C-0.915683 161.077 -9.53539 200.506 19.9334 211.452L273.212 211.732Z" transform="translate(0.8665797 0.1361019)" id="Fill-1" fill="#FFFFFF" fill-opacity="0.4" stroke="none" />
          </g>
          <path d="M33.3479 2.48221C45.899 -3.54407 60.9414 1.77924 66.9478 14.3726C67.1989 14.8995 67.4295 15.4297 67.642 15.9646C76.1618 13.3607 85.3786 16.1465 91.0749 22.8284C93.351 21.9787 95.7448 21.8399 97.9917 22.3185C99.2482 18.2655 102.118 14.7267 106.235 12.7502C114.085 8.98068 130.04 11.2799 135.727 29.0052C139.292 40.1176 136.363 53.9254 125.718 58.1544L93.1867 86.9564L5.872 85.7318C4.41996 84.1392 3.17301 82.309 2.19633 80.2607C-3.13541 69.0823 1.57365 55.6844 12.713 50.3351C13.5524 49.9326 14.4035 49.588 15.2626 49.2982C15.0013 44.3237 17.3924 39.4375 21.7252 36.6581C21.6484 36.5049 21.572 36.3518 21.4984 36.1965C15.492 23.6032 20.7973 8.50902 33.3479 2.48221" transform="translate(85.24976 69.14822)" id="Fill-4" fill="#FFFFFF" stroke="none" />
          <path d="M33.3484 2.48221C45.899 -3.54406 60.9414 1.77924 66.9477 14.3726C67.1989 14.8995 67.43 15.4297 67.642 15.9652C76.1618 13.3607 85.3786 16.147 91.0749 22.8279C93.351 21.9787 95.7448 21.8399 97.9917 22.3185C99.2487 18.265 102.118 14.7273 106.235 12.7502C114.085 8.98068 130.04 11.2799 135.727 29.0052C139.292 40.1181 136.363 53.9254 125.718 58.1544L93.1867 86.9564L5.87199 85.7318C4.41995 84.1392 3.173 82.309 2.19632 80.2607C-3.13542 69.0823 1.57364 55.6839 12.7135 50.3351C13.5524 49.9326 14.4035 49.588 15.2626 49.2976C15.0013 44.3237 17.3924 39.4375 21.7252 36.658C21.6483 36.5049 21.572 36.3518 21.4984 36.197C15.492 23.6032 20.7973 8.50902 33.3484 2.48221" transform="translate(22.05054 123.8292)" id="Fill-6" fill="#FFFFFF" stroke="none" />
          <path d="M16.4727 0L16.4727 0C13.1579 0 10.4467 2.72148 10.4467 6.04755L10.4467 30.7732L10.4467 31.9792C10.0631 41.6559 0 42.1488 0 59.53L0 95.4037C0 99.6901 3.49549 101.385 7.76788 101.385L25.178 101.385C29.4499 101.385 32.9449 99.6901 32.9449 95.4037L32.9449 29.9665C32.9449 20.829 30.858 20.2138 26.584 17.738C22.8278 15.5621 22.5188 11.7101 22.4992 10.8088L22.4992 10.6163L22.4992 6.04755C22.4992 2.72148 19.7875 0 16.4727 0" transform="translate(48.33691 113.1118)" id="Fill-8" fill="#F9E3C2" stroke="none" />
          <path d="M12.3093 0.733277C12.3093 0.328619 11.9818 0 11.5785 0C11.1747 0 10.8471 0.328619 10.8471 0.733277L10.8471 17.5045L7.40624 15.511C7.19691 15.3898 6.92982 15.4621 6.80952 15.6721C6.68976 15.8822 6.7613 16.1502 6.97062 16.2709L10.8471 18.5159L10.8471 42.5046L0.654783 36.5995C0.445456 36.4794 0.178366 36.5511 0.0585988 36.7607C-0.0622278 36.9707 0.00984422 37.2387 0.219171 37.3594L10.8471 43.5165L10.8471 66.5187L0.654783 60.6137C0.445456 60.4935 0.178366 60.5664 0.0585988 60.7759C-0.0622278 60.9859 0.00984422 61.2534 0.219171 61.3741L10.8471 67.5307L10.8471 82.0718C10.8471 82.477 11.1747 82.8056 11.5785 82.8056C11.9818 82.8056 12.3093 82.477 12.3093 82.0718L12.3093 73.6532L21.0379 68.5968C21.2472 68.4761 21.3188 68.2086 21.199 67.9986C21.0787 67.7886 20.8116 67.7162 20.6023 67.8369L12.3093 72.6413L12.3093 53.4133L21.0379 48.357C21.2472 48.2368 21.3188 47.9683 21.199 47.7588C21.0787 47.5487 20.8116 47.4759 20.6023 47.5971L12.3093 52.4014L12.3093 33.1735L21.0379 28.1166C21.2472 27.9964 21.3188 27.7284 21.199 27.5184C21.0787 27.3089 20.8116 27.2366 20.6023 27.3567L12.3093 32.1616L12.3093 12.9337L21.0379 7.87675C21.2472 7.75604 21.3188 7.48805 21.199 7.27854C21.0787 7.0685 20.8116 6.99618 20.6023 7.11689L12.3093 11.9207L12.3093 0.733277Z" transform="translate(55.14282 130.4566)" id="Fill-10" fill="#FCF3EB" stroke="none" />
          <path d="M21.7976 0L21.7976 0C17.4123 0 13.8235 3.60045 13.8235 8.00171L13.8235 40.7211L13.8235 42.3174C13.3164 55.1224 0 55.7748 0 78.7744L0 126.245C0 131.918 4.62586 134.159 10.2793 134.159L33.3169 134.159C38.9703 134.159 43.5956 131.918 43.5956 126.245L43.5956 39.6539C43.5956 27.5625 40.833 26.7484 35.178 23.4723C30.2072 20.5929 29.7986 15.4956 29.7726 14.3029L29.7726 14.0482L29.7726 8.00171C29.7726 3.60045 26.1844 0 21.7976 0" transform="translate(80.34448 59.76868)" id="Fill-12" fill="#F2CB9C" stroke="none" />
          <path d="M16.2887 0.970436C16.2887 0.434436 15.8552 0 15.3216 0C14.7869 0 14.3539 0.434436 14.3539 0.970436L14.3539 23.1628L9.80064 20.5249C9.52295 20.3653 9.16948 20.461 9.01102 20.7386C8.85257 21.0162 8.9469 21.3709 9.22406 21.5309L14.3539 24.5023L14.3539 56.2449L0.865824 48.4309C0.589194 48.2724 0.236253 48.3671 0.0772708 48.6446C-0.0822415 48.9222 0.0131479 49.2769 0.290307 49.4369L14.3539 57.5838L14.3539 88.0225L0.865824 80.2091C0.589194 80.0496 0.236253 80.1463 0.0772708 80.4234C-0.0822415 80.7009 0.0131479 81.0556 0.290307 81.2151L14.3539 89.3615L14.3539 108.604C14.3539 109.139 14.7869 109.574 15.3216 109.574C15.8552 109.574 16.2887 109.139 16.2887 108.604L16.2887 97.4632L27.8388 90.7722C28.1154 90.6132 28.2108 90.2585 28.0518 89.9804C27.8923 89.7034 27.5394 89.6066 27.2627 89.7672L16.2887 96.1242L16.2887 70.6802L27.8388 63.9892C28.1154 63.8302 28.2108 63.475 28.0518 63.198C27.8923 62.9199 27.5394 62.8242 27.2627 62.9842L16.2887 69.3413L16.2887 43.8977L27.8388 37.2063C28.1154 37.0467 28.2108 36.6921 28.0518 36.4145C27.8923 36.1364 27.5394 36.0412 27.2627 36.2007L16.2887 42.5583L16.2887 17.1148L27.8388 10.4233C28.1154 10.2638 28.2108 9.90908 28.0518 9.63151C27.8923 9.35341 27.5394 9.25823 27.2627 9.41722L16.2887 15.7748L16.2887 0.970436Z" transform="translate(89.97021 84.00554)" id="Fill-14" fill="#FCF3EB" stroke="none" />
          <path d="M21.7981 0L21.7981 0C26.1833 0 29.7721 3.60098 29.7721 8.00224L29.7721 40.7211L29.7721 42.3174C30.2787 55.1224 43.5956 55.7748 43.5956 78.7744L43.5956 126.245C43.5956 131.918 38.9698 134.159 33.3164 134.159L10.2782 134.159C4.6248 134.159 0 131.918 0 126.245L0 39.6539C0 27.5625 2.76205 26.7484 8.41759 23.4723C13.3879 20.5929 13.797 15.4956 13.823 14.3029L13.823 14.0482L13.823 8.00224C13.823 3.60098 17.4112 0 21.7981 0" transform="translate(161.2949 42.8468)" id="Fill-16" fill="#FCF3EB" stroke="none" />
          <path d="M11.8403 0.970436C11.8403 0.434436 12.2733 0 12.8074 0C13.3422 0 13.7746 0.434436 13.7746 0.970436L13.7746 23.1629L18.3284 20.5249C18.6061 20.3653 18.9595 20.461 19.118 20.7386C19.2764 21.0162 19.1821 21.3709 18.905 21.5309L13.7746 24.5023L13.7746 56.2449L27.2627 48.4314C27.5393 48.2724 27.8928 48.3676 28.0517 48.6446C28.2113 48.9227 28.1159 49.2769 27.8387 49.4369L13.7746 57.5844L13.7746 88.0226L27.2627 80.2091C27.5393 80.0496 27.8928 80.1463 28.0517 80.4234C28.2113 80.7009 28.1159 81.0556 27.8387 81.2151L13.7746 89.3615L13.7746 108.604C13.7746 109.139 13.3422 109.574 12.8074 109.574C12.2733 109.574 11.8403 109.139 11.8403 108.604L11.8403 97.4632L0.290233 90.7722C0.0130732 90.6132 -0.0817863 90.2585 0.0766662 89.9804C0.236179 89.7034 0.589649 89.6066 0.866279 89.7672L11.8403 96.1248L11.8403 70.6807L0.290233 63.9892C0.0130732 63.8302 -0.0817863 63.475 0.0766662 63.198C0.236179 62.9199 0.589649 62.8242 0.866279 62.9842L11.8403 69.3413L11.8403 43.8978L0.290233 37.2063C0.0130732 37.0467 -0.0817863 36.6921 0.0766662 36.4145C0.236179 36.1369 0.589649 36.0412 0.866279 36.2007L11.8403 42.5583L11.8403 17.1148L0.290233 10.4233C0.0130732 10.2638 -0.0817863 9.90908 0.0766662 9.63151C0.236179 9.35341 0.589649 9.25823 0.866279 9.41722L11.8403 15.7748L11.8403 0.970436Z" transform="translate(167.1357 67.08368)" id="Fill-18" fill="#F2CB9C" stroke="none" />
          <path d="M72.9125 0C59.752 0 49.0837 10.7051 49.0837 23.9105C49.0837 24.4624 49.1028 25.0096 49.1399 25.5536C40.8103 26.8218 34.0805 32.9746 31.9396 41.0088C29.6518 41.2167 27.5522 42.0792 25.8304 43.408C23.1092 40.4648 19.221 38.6218 14.9035 38.6218C6.67249 38.6218 0 45.318 0 53.5761C0 55.786 0.478007 57.8832 1.33598 59.7714L130.23 59.7714C130.821 57.8173 131.141 55.745 131.141 53.5973C131.141 41.876 121.671 32.3743 109.99 32.3743C109.111 32.3743 108.244 32.4285 107.393 32.5338C105.592 28.182 101.564 24.9926 96.736 24.397C96.7392 24.2348 96.7413 24.0727 96.7413 23.9105C96.7413 10.7051 86.0731 0 72.9125 0" transform="translate(139.0266 148.5993)" id="Fill-23" fill="#FFFFFF" stroke="none" />
          <path d="M21.7975 0L21.7975 0C26.1833 0 29.7721 3.60098 29.7721 8.00224L29.7721 40.7211L29.7721 42.3174C30.2787 55.1224 43.5956 55.7748 43.5956 78.7739L43.5956 126.245C43.5956 131.918 38.9698 134.159 33.3164 134.159L10.2782 134.159C4.6248 134.159 0 131.918 0 126.245L0 39.6539C0 27.5625 2.76205 26.7484 8.41759 23.4723C13.3879 20.5929 13.797 15.4956 13.823 14.3029L13.823 14.0482L13.823 8.00224C13.823 3.60098 17.4112 0 21.7975 0" transform="translate(196.6013 81.26364)" id="Fill-25" fill="#F9E3C2" stroke="none" />
          <path d="M11.8398 0.970968C11.8398 0.434968 12.2733 0 12.8069 0C13.3416 0 13.7746 0.434968 13.7746 0.970968L13.7746 23.1634L18.3284 20.5254C18.6061 20.3659 18.959 20.4616 19.1175 20.7392C19.2764 21.0167 19.1816 21.3714 18.9044 21.5309L13.7746 24.5023L13.7746 56.2449L27.2627 48.4314C27.5393 48.2724 27.8928 48.3676 28.0517 48.6452C28.2113 48.9227 28.1159 49.2774 27.8387 49.4375L13.7746 57.5849L13.7746 88.0231L27.2627 80.2096C27.5393 80.0501 27.8928 80.1463 28.0517 80.4239C28.2113 80.7009 28.1159 81.0556 27.8387 81.2151L13.7746 89.362L13.7746 108.604C13.7746 109.14 13.3416 109.574 12.8069 109.574C12.2733 109.574 11.8398 109.14 11.8398 108.604L11.8398 97.4637L0.290233 90.7727C0.0130732 90.6132 -0.0817863 90.2585 0.0766662 89.981C0.236179 89.7034 0.589649 89.6072 0.866279 89.7672L11.8398 96.1248L11.8398 70.6813L0.290233 63.9898C0.0130732 63.8308 -0.0817863 63.4756 0.0766662 63.198C0.236179 62.9204 0.589649 62.8242 0.866279 62.9842L11.8398 69.3418L11.8398 43.8983L0.290233 37.2068C0.0130732 37.0473 -0.0817863 36.6926 0.0766662 36.4145C0.236179 36.1369 0.589649 36.0417 0.866279 36.2013L11.8398 42.5588L11.8398 17.1148L0.290233 10.4233C0.0130732 10.2643 -0.0817863 9.90908 0.0766662 9.63151C0.236179 9.35394 0.589649 9.25823 0.866279 9.41775L11.8398 15.7748L11.8398 0.970968Z" transform="translate(204.124 104.4116)" id="Fill-27" fill="#FCF3EB" stroke="none" />
          <path d="M65.6539 51.6798C64.5729 57.0701 64.4542 62.5338 62.93 67.8624C61.5278 72.7406 59.2788 77.4636 55.8983 81.298C43.4891 95.3717 17.2078 91.6405 6.08534 77.5939C0.76844 70.8721 -1.59775 61.5022 1.15901 53.2245C4.54003 43.0814 14.548 37.706 22.4621 31.5702C27.0027 28.0575 30.5527 23.9811 33.6518 19.1763C36.3079 15.0457 38.7541 10.6774 42.2083 7.13649C44.6714 4.61229 52.0853 -2.57053 64.938 0.955475C74.1659 3.48659 79.2326 12.7081 78.115 22.3327C76.8161 33.5143 67.8177 40.9938 65.6539 51.6798" transform="translate(94.37109 91.80823)" id="Fill-29" fill="#1D5E69" stroke="none" />
          <path d="M29.4233 0.0389314C21.5356 5.02086 12.5102 9.48221 6.19065 16.5177C0.948999 22.3536 -1.82418 30.5372 1.33851 38.0662C1.36553 38.1311 1.46622 38.097 1.44237 38.029C-1.53219 29.5764 2.85202 21.1205 8.92409 15.3325C15.1451 9.40351 23.1742 5.93759 29.6655 0.399455C29.8737 0.221852 29.6649 -0.114211 29.4233 0.0389314" transform="translate(93.24146 121.1018)" id="Fill-31" fill="#1D5E69" stroke="none" />
          <path d="M26.9775 0.0318593C18.4692 7.75281 6.89639 9.12418 0.0225171 18.7472C-0.0596238 18.862 0.103068 19.0093 0.188389 18.8939C7.2064 9.38367 19.4401 8.88064 27.1428 0.178089C27.2403 0.0685497 27.0797 -0.0611962 26.9775 0.0318593" transform="translate(94.45313 119.726)" id="Fill-33" fill="#1D5E69" stroke="none" />
          <path d="M10.1629 13.1774C10.7882 8.56825 12.1624 4.42861 14.3017 0.312365C14.4104 0.102857 14.0977 -0.121008 13.9514 0.0762694C4.25194 13.2146 13.307 33.6161 0.0367842 45.1066C-0.0564854 45.1869 0.0452633 45.3486 0.145952 45.2693C5.9027 40.7112 8.1062 33.8533 8.95092 26.7651C9.48934 22.2485 9.55135 17.6861 10.1629 13.1774" transform="translate(150.4998 130.5038)" id="Fill-35" fill="#1D5E69" stroke="none" />
          <path d="M5.51731 0.318565C5.65139 0.0362076 5.22531 -0.131292 5.07958 0.130858C2.13151 5.43502 0.652444 11.5953 0.629656 17.6551C0.619058 20.6695 1.0605 23.6617 0.987367 26.6788C0.907876 29.9836 0.384823 33.2459 0.000615183 36.5225C-0.00945372 36.6065 0.107134 36.6177 0.126741 36.5395C1.58143 30.7966 1.52632 25.4425 1.28096 19.5944C0.995317 12.7795 2.60793 6.44162 5.51731 0.318565" transform="translate(160.3345 128.2912)" id="Fill-37" fill="#1D5E69" stroke="none" />
          <path d="M39.157 0C35.9424 4.20664 32.7876 8.45954 29.2784 12.4285C29.113 12.6157 28.9371 12.7901 28.7696 12.9751C24.6456 16.0151 20.768 19.4103 16.724 22.5572C13.3314 25.1978 9.90476 27.8358 7.05367 31.0805C1.51525 37.3828 -0.865242 45.6663 0.281021 53.9637C0.29533 54.0658 0.452722 54.0562 0.441594 53.9509C-0.447118 45.0857 2.57726 36.4661 8.77492 30.092C14.2672 24.4438 20.8443 19.975 26.9116 14.9708C24.29 17.671 21.5068 20.1867 18.6975 22.7098C12.121 28.6154 6.4294 34.9798 4.50465 43.8674C2.76751 51.8894 3.88621 60.6408 7.60905 67.9481C7.74048 68.2054 8.17132 67.9874 8.06109 67.7205C4.794 59.7884 3.38277 51.2098 5.5762 42.7795C7.909 33.81 14.3647 27.8045 21.0648 21.9063C27.5407 16.206 33.0203 9.86123 38.1464 2.92407" transform="translate(97.15894 105.0624)" id="Fill-39" fill="#185056" stroke="none" />
          <path d="M38.2466 0.098753C38.2355 -0.0437549 38.0188 -0.026739 38.0262 0.115769C38.4194 7.8984 36.5842 15.4875 33.3415 22.5326C30.4014 28.9188 25.7565 34.4426 23.6823 41.2192C21.3919 48.6982 21.2514 56.6478 17.5625 63.6929C13.792 70.8938 8.17406 76.257 0.125307 78.0096C-0.0856095 78.0554 -0.0103578 78.41 0.203209 78.3818C7.18148 77.4619 12.5323 72.7554 16.3076 67.0376C20.8243 60.1967 21.6939 52.6267 23.4804 44.818C25.4305 36.292 30.9494 29.835 34.3521 21.9482C37.3283 15.0525 38.8365 7.61392 38.2466 0.098753" transform="translate(131.791 101.6402)" id="Fill-41" fill="#185056" stroke="none" />
          <path d="M50.7792 0.00810189C43.4962 3.22304 37.6006 10.4149 32.776 16.5231C29.9361 20.1193 27.4904 23.9829 24.8174 27.6993C22.0585 31.5348 18.8269 34.7508 15.5121 38.0901C4.14327 49.5424 -1.68184 65.851 0.425735 81.9432C0.457531 82.1862 0.83326 82.1612 0.807293 81.9134C-0.959002 65.1284 5.09929 49.2595 17.0103 37.4909C20.005 34.5322 22.8348 31.5523 25.3001 28.1258C27.7771 24.6832 30.0606 21.1115 32.6488 17.7482C37.6425 11.2604 43.5063 4.0265 50.8735 0.196872C50.98 0.14157 50.8894 -0.040287 50.7792 0.00810189" transform="translate(106.4409 93.45795)" id="Fill-43" fill="#185056" stroke="none" />
          <path d="M38.0697 0.212698C36.1264 4.0987 33.8381 7.78476 31.8158 11.625C30.0262 15.0239 29.0999 18.4489 28.4491 22.2249C25.8762 37.1446 17.4687 56.7479 0.162947 58.3075C-0.0728771 58.3283 -0.0432003 58.676 0.190504 58.6728C7.37651 58.5745 13.5874 53.8047 17.9923 48.4697C23.279 42.0675 26.6113 34.2067 28.3145 26.1124C29.3219 21.323 29.8296 16.7298 32.1168 12.3094C34.262 8.16017 36.7358 4.20292 38.7899 0" transform="translate(119.7544 122.3804)" id="Fill-45" fill="#185056" stroke="none" />
          <path d="M26.6502 0.101033C26.6952 0.0398827 26.6072 -0.0393474 26.5606 0.0223351C14.6369 15.7322 -0.989979 31.6984 0.0492358 52.9651C0.0603645 53.1996 0.396877 53.1629 0.404826 52.9374C0.757767 42.9193 3.06884 33.5479 8.50816 25.0335C14.0127 16.4155 20.5839 8.33086 26.6502 0.101033" transform="translate(110.9136 124.3989)" id="Fill-47" fill="#185056" stroke="none" />
          <path d="M36.5546 0.0189637C29.7432 10.9203 23.7167 22.1327 18.6998 33.9858C16.323 39.5995 14.3823 45.4354 11.4157 50.7773C8.36698 56.266 4.40937 60.9283 0.038415 65.3854C-0.0813518 65.5077 0.105188 65.7273 0.238733 65.6141C9.67328 57.6272 13.978 46.7828 18.5996 35.6731C23.6971 23.4179 29.7173 11.3877 36.6229 0.0529955C36.6489 0.0109875 36.5805 -0.0225125 36.5546 0.0189637" transform="translate(120.1206 112.3552)" id="Fill-49" fill="#185056" stroke="none" />
          <path d="M58.0225 45.9831C59.2965 51.3309 61.4756 56.3399 62.3214 61.8174C63.0904 66.836 63.0252 72.0705 61.5615 76.9743C56.1879 94.9755 30.7745 102.661 14.8021 94.5985C7.16352 90.7375 1.09569 83.2303 0.133847 74.5565C-1.04209 63.9258 5.7915 54.8313 10.4073 45.9278C13.0581 40.8273 14.5747 35.6321 15.3766 29.9653C16.0591 25.0977 16.4518 20.103 18.1052 15.4338C19.2838 12.105 23.0072 2.46288 36.1481 0.247628C45.5816 -1.34229 54.039 4.89296 57.0517 14.098C60.5519 24.7935 55.5148 35.3732 58.0225 45.9831" transform="translate(114.7327 92.5733)" id="Fill-51" fill="#1D5E69" stroke="none" />
          <path d="M15.3617 0.104605C10.288 7.94892 3.96317 15.8001 1.17144 24.8483C-1.14388 32.3534 -0.236618 40.9491 5.78458 46.4494C5.83598 46.4973 5.91388 46.4239 5.86354 46.3723C-0.373343 39.9536 0.0675684 30.4317 3.15713 22.6208C6.32141 14.6191 12.1587 8.0909 15.7321 0.330065C15.8471 0.0812081 15.5175 -0.136276 15.3617 0.104605" transform="translate(114.1343 133.9093)" id="Fill-53" fill="#1D5E69" stroke="none" />
          <path d="M16.9387 0.0737059C12.4475 10.665 2.21429 18.0664 0.00231287 29.6967C-0.0241842 29.835 0.185143 29.9004 0.213759 29.76C2.60379 18.1717 13.8015 11.2802 17.1507 0.136452C17.1925 -0.00392894 16.9933 -0.0544448 16.9387 0.0737059" transform="translate(110.8584 133.2055)" id="Fill-55" fill="#1D5E69" stroke="none" />
          <path d="M2.48049 13.6354C1.11907 9.18898 0.634708 4.85313 0.853574 0.215775C0.864173 -0.0203206 0.486855 -0.0915745 0.43757 0.149306C-2.86926 16.1596 13.8864 30.8613 6.65007 46.8802C6.5992 46.9924 6.75924 47.0966 6.81754 46.9818C10.1355 40.4195 9.26587 33.267 7.06608 26.4782C5.66438 22.1524 3.81224 17.9857 2.48049 13.6354" transform="translate(170.9338 124.8275)" id="Fill-57" fill="#1D5E69" stroke="none" />
          <path d="M0.5687 0.223005C0.57241 -0.0901938 0.11613 -0.062543 0.0933424 0.237362C-0.362937 6.29288 0.872356 12.5069 3.38746 18.0163C4.63918 20.7569 6.29154 23.2864 7.48815 26.0558C8.79816 29.0883 9.68899 32.2692 10.7112 35.4054C10.7372 35.4852 10.8474 35.4469 10.8331 35.3671C9.74994 29.5424 7.46006 24.7062 4.79021 19.5014C1.67946 13.4374 0.490269 7.00595 0.5687 0.223005" transform="translate(171.2485 122.3756)" id="Fill-59" fill="#1D5E69" stroke="none" />
          <path d="M29.7265 0.0139424C21.823 3.77392 19.0964 11.9777 17.3073 19.9709C16.1499 25.1427 15.0667 30.332 13.5421 35.4123C13.4706 35.6521 13.3837 35.8845 13.3095 36.1232C10.8383 40.6196 8.73925 45.3346 6.38631 49.8944C4.41175 53.7203 2.40592 57.5579 1.17592 61.7044C-1.21358 69.7577 0.0921943 78.2779 4.60464 85.3256C4.65976 85.4123 4.7986 85.3368 4.74508 85.2469C0.228389 77.5749 -0.633295 68.4773 2.32484 60.0821C4.94593 52.6414 9.04608 45.8148 12.4578 38.7171C11.2088 42.2723 9.73554 45.7276 8.2411 49.2015C4.74349 57.3319 2.24111 65.5064 4.21302 74.3834C5.99309 82.3952 10.6709 89.8673 17.107 94.93C17.3338 95.1087 17.6338 94.7296 17.4218 94.5334C11.1383 88.7107 6.26707 81.5194 4.73024 72.9445C3.09484 63.8213 6.44089 55.6505 10.0535 47.4749C13.5458 39.5732 15.8643 31.5061 17.6136 23.0502C19.3534 14.6433 21.187 4.23973 29.8548 0.24472C30.0084 0.173998 29.8797 -0.0589068 29.7265 0.0139424" transform="translate(117.8506 93.69952)" id="Fill-61" fill="#185056" stroke="none" />
          <path d="M2.06078 0.0554698C1.99083 -0.0689587 1.80164 0.0373905 1.86788 0.163946C5.48155 7.06175 6.99135 14.7221 6.99612 22.4829C7.00036 29.5174 5.09576 36.4875 6.04806 43.5113C7.09946 51.2642 10.2987 58.5385 9.89808 66.4865C9.4895 74.6105 6.6347 81.8449 0.062903 86.8263C-0.109328 86.9566 0.107418 87.2474 0.289718 87.1315C6.23831 83.3567 9.1249 76.8311 10.1583 70.0513C11.3952 61.939 9.01732 54.7025 7.37132 46.8629C5.57376 38.3029 7.8806 30.1183 7.66915 21.5263C7.48367 14.0138 5.74069 6.62732 2.06078 0.0554698" transform="translate(162.312 96.39203)" id="Fill-63" fill="#185056" stroke="none" />
          <path d="M19.313 0.0309526C14.0475 6.01682 11.7062 15.0278 9.88429 22.6041C8.81169 27.0644 8.20808 31.6018 7.33686 36.1009C6.43808 40.7435 4.8509 45.0241 3.23988 49.4514C-2.28635 64.6354 -0.74899 81.8906 7.89754 95.6075C8.0279 95.8148 8.35859 95.6341 8.2314 95.4203C-0.39499 80.9302 -1.53701 63.9755 4.34905 48.2757C5.82864 44.3296 7.14979 40.433 7.95371 36.2843C8.76134 32.116 9.33951 27.9125 10.2812 23.7697C12.0984 15.7775 14.3936 6.74212 19.4778 0.162826C19.551 0.0676431 19.3925 -0.0594441 19.313 0.0309526" transform="translate(129.9653 94.30801)" id="Fill-65" fill="#185056" stroke="none" />
          <path d="M6.8693 0.0760145C6.88413 0.00157005 6.77126 -0.0335252 6.75483 0.0425145C2.50735 19.3236 -4.99503 40.3983 4.84704 59.262C4.95568 59.4699 5.24555 59.2944 5.15811 59.087C1.28636 49.8464 -0.537164 40.3669 0.836444 30.3472C2.22648 20.2063 4.80676 10.101 6.8693 0.0760145" transform="translate(137.5547 130.7098)" id="Fill-67" fill="#185056" stroke="none" />
          <path d="M5.79788 0.0354409C4.17785 12.7984 3.40042 25.514 3.80583 38.3855C3.9982 44.4814 4.67864 50.596 4.22077 56.694C3.75124 62.9601 2.11002 68.8588 0.00826712 74.7452C-0.0494965 74.9069 0.211765 75.0276 0.285956 74.868C5.50641 63.645 4.87578 51.9886 4.42109 39.9589C3.91977 26.6887 4.34955 13.2344 5.87472 0.0375679C5.88002 -0.0113527 5.80424 -0.012948 5.79788 0.0354409" transform="translate(150.8975 111.6938)" id="Fill-69" fill="#185056" stroke="none" />
          <path d="M7.8854 0.287136C-7.88725 -2.70978 3.1933 18.4909 13.4471 29.5124C23.701 40.5339 85.4338 65.6616 85.4338 65.6616L93.9845 49.9979C93.9845 49.9979 68.6866 24.89 44.2611 12.4189C34.7762 7.57737 14.2548 1.49686 7.8854 0.287136" transform="translate(139.657 133.5537)" id="Fill-71" fill="#FFBB49" stroke="none" />
          <path d="M1.71139 0C1.71139 0 10.2572 8.10647 19.9901 13.525C29.723 18.9424 33.4962 24.5741 33.4962 24.5741L28.8311 26.7479L5.84599 10.5169C5.84599 10.5169 -3.82597 4.20877 1.71139 0" transform="translate(188.4097 157.825)" id="Fill-73" fill="#F5883D" stroke="none" />
          <path d="M69.3863 34.0248C59.8452 17.2924 57.5506 3.46645 52.9321 2.02914L20.0837 0C17.3524 0 15.0784 2.03818 14.6815 4.67192C4.55803 9.08116 18.6375 23.3782 16.1235 26.7383C7.12029 38.7712 0.343932 58.0092 0 79.3471C2.31001 82.8662 18.3969 83.4549 24.3529 81.5283L99.6073 83.3969C102.616 83.3969 105.077 80.9269 105.077 77.9087C105.077 77.9087 87.8707 66.4422 69.3863 34.0248" transform="translate(96.76147 131.6917)" id="Fill-75" fill="#FFBB49" stroke="none" />
          <path d="M60.1277 13.5822C74.6481 6.71474 76.1128 1.60679 68.9396 14.8547C61.7663 28.1032 20.7239 61.5547 20.7239 61.5547L0 49.0593C0 49.0593 20.5278 20.1525 57.1086 0.782586C66.5198 -4.20094 54.2649 16.3553 60.1277 13.5822" transform="translate(52.70679 136.7043)" id="Fill-77" fill="#FFBB49" stroke="none" />
          <path d="M48.0985 13.9398C60.0561 3.19325 66.0879 -6.95193 58.9146 6.29598C56.5956 10.5797 50.7424 18.2347 43.7329 25.0634C29.0604 39.3573 9.69528 53.9526 9.69528 53.9526L0 48.5735C0 48.5735 5.55379 35.5856 14.0631 31.4231C24.5416 26.2971 29.478 27.0389 33.9449 24.4689C40.4425 20.7302 44.814 16.8921 48.0985 13.9398" transform="translate(62.73145 145.2628)" id="Fill-79" fill="#F5883D" stroke="none" />
          <g id="Group-83" transform="translate(0 208.0546)">
            <path d="M0 0L302.404 0L302.404 10.3754L0 10.3754L0 0Z" transform="translate(0 0.1863769)" id="Clip-82" fill="none" stroke="none" />
            <g clip-path="url(#mask_1)">
              <path d="M7.49814 4.87186L2.42713 4.87186C1.09221 4.87186 0 3.77593 0 2.43646C0 1.09699 1.0938 0 2.42713 0L299.978 0C301.311 0 302.405 1.09699 302.405 2.43646C302.405 3.77593 301.313 4.87186 299.978 4.87186L295.028 4.87186C294.187 4.87186 293.499 5.56206 293.499 6.40647C293.499 7.24982 294.187 7.94056 295.028 7.94056L297.218 7.94056C297.885 7.94056 298.432 8.48826 298.432 9.15826C298.432 9.82826 297.885 10.3754 297.218 10.3754L5.20297 10.3754C4.53577 10.3754 3.98887 9.82826 3.98887 9.15826C3.98887 8.48826 4.53683 7.94056 5.20297 7.94056L7.49814 7.94056C8.33863 7.94056 9.02755 7.24982 9.02755 6.40647C9.02755 5.56206 8.33863 4.87186 7.49814 4.87186ZM0.710122 9.15826C0.710122 9.83092 1.25331 10.3754 1.92369 10.3754C2.59406 10.3754 3.13725 9.83092 3.13725 9.15826C3.13725 8.4856 2.59406 7.94056 1.92369 7.94056C1.25331 7.94056 0.710122 8.4856 0.710122 9.15826Z" transform="translate(-0.0002119766 0.1863769)" id="Fill-81" fill="#6B4644" fill-rule="evenodd" stroke="none" />
            </g>
          </g>
          <path d="M175.422 12.8495C175.222 12.8043 175.016 12.7623 174.808 12.7219C171.598 12.0599 156.217 8.95501 139.432 6.7137C139.343 6.50844 139.102 6.30638 138.679 6.12027C138.25 5.93044 137.638 5.77517 136.951 5.63372C136.912 5.15887 136.588 4.66807 135.811 4.19535C135.426 3.91618 134.914 3.65137 134.229 3.40677C133.751 3.23608 133.228 3.08613 132.677 2.95159C132.886 2.84684 133.088 2.74155 133.247 2.63308C133.56 2.42038 133.669 2.19864 133.49 1.97744C133.318 1.76421 132.905 1.56267 132.371 1.38082C131.815 1.19152 131.131 1.02029 130.386 0.86396C129.775 0.735809 129.099 0.623611 128.47 0.499182C126.05 0.022206 60.8949 -0.0650003 59.6352 0.0392219C57.2802 0.233841 41.1143 0.40719 39.2441 0.786857C38.375 0.963928 37.6973 1.18088 37.3639 1.42814C37.0221 1.68285 37.0385 1.95138 37.179 2.21194C37.4699 2.75485 38.3719 3.31637 37.7508 3.86301C37.2023 4.34477 35.4455 4.66967 33.4906 4.90151C31.5335 5.13228 29.41 5.29181 27.4651 5.52844C25.9951 5.7071 24.9384 5.97351 24.1461 6.29096C22.9755 6.75996 22.4254 7.31191 22.6363 7.84632C7.135 10.0345 7.1403 12.7942 4.13659 13.4142C3.92832 13.4552 3.72217 13.4972 3.52239 13.5418C-4.07326 15.2477 1.3952 17.1689 12.4858 18.0144C22.0587 18.7444 31.6628 19.0911 35.9781 19.2214L35.6294 19.5272L40.5664 19.4336L40.8499 19.1938C41.8875 19.2416 43.029 19.265 44.4063 19.2863C45.0369 19.2959 49.6273 19.3129 50.2325 19.2741C51.5118 19.1922 53.9977 19.0518 56.5489 19.0167C58.1837 18.9938 59.6177 19.2103 61.2749 19.3693C63.9389 19.6245 64.6161 19.5548 64.9288 19.4527C65.1986 19.3639 65.0337 19.2874 64.8006 19.2315C66.7285 19.3698 67.3295 19.2937 67.64 19.1922C67.8414 19.1262 67.8483 19.0662 67.7619 19.0146L78.0952 19.39L79.3443 19.4363C79.3438 19.4363 79.3432 19.4373 79.3432 19.4373L80.0793 19.4639C80.0809 19.4618 80.0814 19.4596 80.0835 19.457C80.8053 19.4554 81.4391 19.3405 81.5234 19.1821C81.5472 19.1379 81.5663 19.0901 81.578 19.0406C81.7682 19.0864 82.0178 19.1199 82.3056 19.1358C82.3045 19.1385 82.3024 19.1406 82.3014 19.1433L83.056 19.1555L83.056 19.1544L84.3369 19.1752L89.3565 19.2592C90.5314 19.2789 91.127 18.9981 91.2197 18.6535L105.418 18.7285C105.362 18.9258 105.479 19.0715 105.479 19.0715L106.382 19.0624C106.383 19.063 106.382 19.063 106.382 19.0635L106.958 19.0576L106.957 19.0566L107.933 19.0465L108.507 19.0465L114.045 19.0465C114.619 19.0406 115.263 18.9651 115.704 18.863C115.718 18.8875 115.729 18.9018 115.729 18.9018L116.622 18.8923L116.622 18.8933L117.191 18.8875L117.19 18.887L118.155 18.8769L119.673 18.8614C119.687 18.887 119.699 18.9018 119.699 18.9018L120.592 18.8923L120.592 18.8933L121.16 18.8875L121.16 18.887L122.125 18.8769L125.993 18.8375L137.331 18.8971C138.189 18.8971 138.997 18.8492 139.702 18.7663L143.315 18.8343L143.117 18.6615L144.601 18.6461L144.631 18.6243C145.302 18.6094 145.874 18.5668 146.196 18.4419C146.212 18.4355 146.226 18.4275 146.241 18.4206C151.219 18.2404 158.849 17.9022 166.459 17.322C177.549 16.476 183.018 14.5554 175.422 12.8495" transform="translate(58.71045 197.6847)" id="Fill-84" fill="#3E211D" stroke="none" />
          <path d="M8.94276 11.1029L3.87864 11.6022L0 10.6025L2.74298 0L9.94965 0.833778L8.94276 11.1029Z" transform="translate(136.2622 127.991)" id="Fill-86" fill="#F4DED3" stroke="none" />
          <path d="M6.88146 4.02372C6.88146 4.02372 8.61808 2.41625 2.49354 14.2072C1.87828 15.393 1.39021 16.5777 1.00441 17.7316C-1.46194 25.1197 0.718769 33.2735 6.39391 38.5909C8.28527 40.3632 10.5953 41.918 13.3377 42.7529C17.3065 43.9621 22.183 42.7832 26.3022 40.3127C39.237 32.5572 40.4029 12.0712 40.4029 12.0712L8.64246 0L6.88146 4.02372Z" transform="translate(133.804 96.00731)" id="Fill-88" fill="#F4DED3" stroke="none" />
          <path d="M4.00477 0C4.00477 0 3.80127 0.354675 4.00477 2.04775C4.20827 3.7403 0 2.44656 0 2.44656C0 2.44656 2.91892 2.99107 3.12242 1.7654C3.32644 0.539722 4.00477 0 4.00477 0" transform="translate(152.8464 126.5314)" id="Fill-90" fill="#D8B7B4" stroke="none" />
          <path d="M10.1855 0.158072C10.256 0.0432149 10.0832 -0.053031 9.9979 0.0331118C8.5607 1.48797 7.38423 3.15127 5.82938 4.49818C4.10972 5.98813 2.21677 6.82244 0.0387164 7.42597C-0.0333556 7.44618 0.00480017 7.54827 0.0747524 7.53392C4.51089 6.62091 7.80289 4.03822 10.1855 0.158072" transform="translate(139.8167 107.1009)" id="Fill-92" fill="#185056" stroke="none" />
          <path d="M10.5696 0.179507C10.6597 0.0428487 10.4493 -0.0709449 10.355 0.0534837C7.48956 3.82303 4.03275 6.64288 0.101112 9.22769C-0.121464 9.37392 0.0587166 9.70999 0.3009 9.59247C4.55845 7.51973 7.98082 4.10592 10.5696 0.179507" transform="translate(137.1707 103.7153)" id="Fill-94" fill="#185056" stroke="none" />
          <path d="M11.9854 0.16463C12.0633 0.0380749 11.8746 -0.0650837 11.7903 0.0497733C8.77285 4.14103 4.64355 6.1271 0.0950618 8.03925C-0.097307 8.12008 0.0304089 8.44498 0.228607 8.3817C4.87036 6.89972 9.3595 4.40956 11.9854 0.16463" transform="translate(137.2634 105.9836)" id="Fill-96" fill="#185056" stroke="none" />
          <path d="M3.84549 4.62004C2.90643 4.55995 1.33357 4.05426 1.02938 3.08329C0.67114 1.94057 1.32032 0.812739 2.19419 0.105517C2.24984 0.0603191 2.182 -0.0242285 2.12212 0.00661276C0.918093 0.629287 -0.40835 2.07936 0.118942 3.49593C0.5837 4.7434 3.07177 5.10871 3.87146 4.84178C3.9891 4.80296 3.98009 4.62855 3.84549 4.62004" transform="translate(146.7551 127.8722)" id="Fill-98" fill="#ED8888" stroke="none" />
          <path d="M0.348384 0.19798C0.696555 -0.06098 1.11627 -0.0604482 1.47716 0.167671C2.33937 0.713242 2.94721 1.66188 3.25193 2.62274C3.33301 2.87585 3.61229 4.04197 3.05744 4.1095C2.4957 4.17756 2.12951 3.73515 1.793 3.35017C1.26147 2.74185 0.728351 2.12875 0.20636 1.51352C0.000743071 1.27051 -0.0564905 0.897757 0.0585066 0.601575C0.123159 0.435139 0.20318 0.305925 0.348384 0.19798" transform="translate(164.104 121.3351)" id="Fill-100" fill="#1D5E69" stroke="none" />
          <path d="M4.58622 1.94385C4.71341 1.52749 4.57404 1.13081 4.23911 0.864936C3.43943 0.231095 2.34563 -0.0283965 1.34139 0.00244469C1.07695 0.0104209 -0.112235 0.133254 0.00859138 0.680952C0.132068 1.23556 0.668898 1.43443 1.14373 1.6248C1.892 1.92577 2.64505 2.2262 3.39704 2.51494C3.6938 2.62927 4.06317 2.55961 4.30324 2.3517C4.43837 2.23471 4.5327 2.1172 4.58622 1.94385" transform="translate(150.3889 113.9692)" id="Fill-102" fill="#1D5E69" stroke="none" />
          <path d="M3.02596 2.34082C2.71648 2.14567 2.38579 2.06856 2.05935 2.08983C1.67832 2.02815 1.28882 1.88458 0.999467 1.66284C0.490724 1.27254 0.356119 0.720057 0.399044 0.131415C0.409643 -0.0121567 0.326972 -0.0451249 0.277158 0.0676052C-0.0222586 0.741859 -0.219397 1.67454 0.448329 2.25414C0.607311 2.3924 0.780072 2.48971 0.959722 2.55405C0.666135 2.7944 0.406994 3.11664 0.210385 3.50481C-0.405406 4.72198 1.26656 2.68433 2.37201 3.32721C3.49072 3.9786 2.43455 6.47567 3.17435 5.43398C3.83253 4.50715 4.16163 3.05549 3.02596 2.34082" transform="translate(147.3132 117.7434)" id="Fill-104" fill="#1D5E69" stroke="none" />
          <path d="M6.08179 1.95479C5.55291 2.21109 4.99117 2.28926 4.44162 1.95798C4.11677 1.7623 3.82954 1.43368 3.63028 1.08485C3.59318 0.979037 3.54337 0.878536 3.48349 0.781227C3.47925 0.771655 3.47342 0.762616 3.46971 0.753576C3.466 0.7456 3.45964 0.742941 3.45487 0.736028C3.35259 0.582354 3.23123 0.437719 3.06801 0.317012C1.98693 -0.479012 0.763299 0.362211 0.146977 1.31776C-0.545656 2.39189 1.37909 0.487171 2.39446 1.29117C3.39764 2.0856 2.12472 4.39498 3.02509 3.37296C3.31496 3.04434 3.51104 2.68062 3.62445 2.31585C3.75164 2.46314 3.90691 2.59129 4.09716 2.6902C4.87988 3.09964 5.67214 2.57268 6.18619 2.04412C6.27151 1.95639 6.21162 1.89205 6.08179 1.95479" transform="translate(159.7881 125.913)" id="Fill-106" fill="#1D5E69" stroke="none" />
          <path d="M17.3183 0.0274671C12.0163 6.66259 4.29819 8.73002 0.014148 17.0003C-0.0372563 17.0986 0.0639625 17.2252 0.117487 17.1263C4.49109 8.95335 12.6215 7.63196 17.4217 0.152959C17.4826 0.0593718 17.3825 -0.0528265 17.3183 0.0274671" transform="translate(108.6379 115.7387)" id="Fill-108" fill="#1D5E69" stroke="none" />
          <path d="M1.04181 0.343508C1.04181 0.343508 4.70582 3.57971 9.40746 0C9.40746 0 9.87116 0.456238 10.9877 1.00766C10.9877 1.00766 8.16422 4.46082 2.94165 3.07615C-2.28092 1.69095 1.04181 0.343508 1.04181 0.343508" transform="translate(135.4128 137.5061)" id="Fill-110" fill="#F5883D" stroke="none" />
          <path d="M5.10387 6.79198C5.10387 6.79198 3.35029 5.39509 0 0C0 0 0.888182 4.95161 2.3079 8.2394C2.3079 8.2394 3.76576 7.87355 5.10387 6.79198" transform="translate(139.7227 130.7103)" id="Fill-112" fill="#D8B7B4" stroke="none" />
          <path d="M1.39264 3.27107C1.3142 3.31041 1.25114 3.16418 1.18278 3.10622C0.756176 2.74942 0.422313 2.3437 0.202918 1.94436C-0.148433 1.3052 -4.96848e-05 0.878206 0.317915 0.49588C0.621041 0.131102 0.992 -0.129454 1.64383 0.0678238C2.1017 0.206078 2.5956 0.474078 3.05347 0.857999C3.29459 1.06006 3.50604 1.27808 3.68463 1.50141C3.68463 1.50141 2.55215 2.69412 1.39264 3.27107" transform="translate(159.5344 132.5298)" id="Fill-114" fill="#F4ABAB" stroke="none" />
          <path d="M5.56975 4.65777C5.02868 5.33468 4.52948 5.27619 3.49768 4.94278C3.01967 4.78858 2.51093 4.58598 2.01808 4.28608C1.3599 3.88514 0.818297 3.39859 0.43515 2.89662C-0.179052 2.09369 -0.063525 1.47739 0.293125 0.887155C0.633878 0.324036 1.0891 -0.109869 2.02232 0.0246626C2.67892 0.119313 3.4113 0.383591 4.11824 0.814306C5.03822 1.37477 5.72926 2.10273 6.08167 2.80516C6.3848 3.40976 5.89248 4.25311 5.56975 4.65777" transform="translate(140.0615 120.841)" id="Fill-116" fill="#F4ABAB" stroke="none" />
          <path d="M0.0849416 7.34572C0.0849416 7.34572 -1.1175 0.400593 5.52585 0.104411C12.1681 -0.191771 29.4999 0.236284 29.4999 0.236284L27.7288 6.01263L2.7781 7.21597L0.0849416 7.34572Z" transform="translate(172.7192 207.767)" id="Fill-118" fill="#185056" stroke="none" />
          <path d="M1.26942 0C1.26942 0 -0.0761032 0.529087 0.0033884 4.03329L0.635082 4.00245C0.635082 4.00245 0.478748 1.98341 1.26942 0" transform="translate(175.4939 210.9496)" id="Fill-120" fill="#FFFFFF" stroke="none" />
          <path d="M1.27153 0C1.27153 0 -0.0761078 0.615229 0.00338325 4.11943L0.635072 4.08912C0.635072 4.08912 0.480859 1.98341 1.27153 0" transform="translate(173.7917 210.9496)" id="Fill-122" fill="#FFFFFF" stroke="none" />
          <path d="M1.60587 6.58748C1.30804 6.88366 1.32924 6.46358 1.30804 6.88366C1.12362 10.6367 0.00650303 30.3294 0.00650303 33.9511C0.00650303 35.4608 -0.14665 37.4984 1.03353 38.8474C3.00014 41.0962 6.88515 41.6056 8.26988 35.833C9.96941 28.7485 10.4623 10.0433 10.5995 1.71137C10.6244 0.204936 8.81307 -0.569817 7.74577 0.489952L1.60587 6.58748Z" transform="translate(160.5452 172.7586)" id="Fill-124" fill="#1D5E69" stroke="none" />
          <path d="M0.0859214 7.43015C0.0859214 7.43015 -1.13029 0.405254 5.58883 0.105881C7.36254 0.026651 10.2608 -0.00153155 13.0213 6.36913e-05L12.0011 5.30316C11.8103 6.29806 10.6031 7.25042 9.59413 7.2988L2.81035 7.2988L0.0859214 7.43015Z" transform="translate(156.2761 206.091)" id="Fill-126" fill="#1D5E69" stroke="none" />
          <path d="M1.28325 0C1.28325 0 -0.07711 0.534937 0.00344109 4.07903L0.64096 4.07903C0.64096 4.07903 0.483568 2.00575 1.28325 0" transform="translate(159.083 209.3108)" id="Fill-128" fill="#FFFFFF" stroke="none" />
          <path d="M1.28537 0C1.28537 0 -0.0771155 0.622143 0.00343596 4.16676L0.642018 4.13539C0.642018 4.13539 0.485685 2.00575 1.28537 0" transform="translate(157.3611 209.3108)" id="Fill-130" fill="#FFFFFF" stroke="none" />
          <path d="M1.99671 2.58322L3.04705 23.5622C3.12124 24.689 2.7381 25.7934 1.99194 26.6389C1.03751 27.7204 -0.12571 29.5571 0.0110154 31.9845L3.6125 31.8367L6.39469 27.302L6.50598 24.1896L3.08097 0L1.99671 2.58322Z" transform="translate(160.5342 181.372)" id="Fill-132" fill="#185056" stroke="none" />
          <path d="M0.00440194 19.3225C0.00440194 19.3225 9.60588 21.8409 14.537 12.6932C20.5847 1.47446 28.1538 0.939526 30.4903 0.290796C32.8269 -0.357934 41.8115 -0.6371 46.714 7.58635C53.4834 18.9418 45.1697 38.6658 55.1395 44.4661C61.9069 48.4032 70.0796 51.0656 72.016 62.9374C73.6716 73.0879 65.2413 81.9249 58.8793 84.6342C47.6599 89.4125 20.3012 80.1766 20.3012 80.1766C20.3012 80.1766 12.5974 45.0186 14.7066 40.2212C16.8163 35.4232 20.3314 31.8052 20.3314 31.8052C20.3314 31.8052 14.9435 27.8698 8.1035 27.1881C7.72565 27.1509 9.60535 25.4264 9.22008 25.4099C7.14748 25.3211 3.42941 26.3634 2.40557 25.47C-0.212874 23.183 0.00440194 19.3225 0.00440194 19.3225" transform="translate(146.6277 126.7282)" id="Fill-134" fill="#EFD3CD" stroke="none" />
          <path d="M0.281352 2.23538C0.281352 2.23538 3.24744 1.33513 1.92841 0.440204C0.609916 -0.455258 -0.553307 -0.0458124 0.281352 2.23538" transform="translate(146.2996 145.7257)" id="Fill-136" fill="#1D5E69" stroke="none" />
          <path d="M0.341283 0C0.341283 0 6.14521 1.76699 6.88235 7.18549L6.07101 7.37532C6.07101 7.37532 5.01431 2.99639 0 1.00447L0.341283 0Z" transform="translate(167.2778 129.5196)" id="Fill-138" fill="#185056" stroke="none" />
          <path d="M0.986221 1.86536C0.986221 1.86536 6.74562 2.1961 10.8013 0.722109L14.5628 0C14.5628 0 5.87705 1.38626 0 0.999679C0 0.999679 0.226815 1.25438 0.467408 1.4607C0.660837 1.62714 0.986221 1.86536 0.986221 1.86536" transform="translate(148.5664 150.7371)" id="Fill-140" fill="#185056" stroke="none" />
          <path d="M5.94266 2.66815C5.79003 3.92467 4.33852 4.78131 2.701 4.58084C1.06348 4.38037 -0.140015 3.19883 0.0131381 1.94179C0.166291 0.685273 1.61727 -0.171369 3.25479 0.0290989C4.89231 0.229567 6.09581 1.41111 5.94266 2.66815" transform="translate(165.813 135.6696)" id="Fill-142" fill="#FFFFFF" stroke="none" />
          <path d="M3.22734 1.74412C3.22734 2.70765 2.50503 3.48772 1.61367 3.48772C0.72231 3.48772 0 2.70765 0 1.74412C0 0.780602 0.72231 0 1.61367 0C2.50503 0 3.22734 0.780602 3.22734 1.74412" transform="translate(165.8108 136.1055)" id="Fill-144" fill="#1D5E69" stroke="none" />
          <path d="M14.9823 35.3866C14.9823 35.3866 29.897 8.32129 6.11001 0C6.11001 0 -12.3855 20.1324 14.9823 35.3866" transform="translate(175.5491 125.944)" id="Fill-146" fill="#D8B7B4" stroke="none" />
          <path d="M29.2719 13.0421C31.2872 6.69203 26.5283 0.197815 19.8898 0.0148947C12.5602 -0.186637 0.469539 1.50112 1.07978e-05 14.7395C1.07978e-05 14.7395 -0.0407947 21.1741 4.89455 25.6902C9.83042 30.2058 17.841 32.1244 17.841 32.1244C17.841 32.1244 -2.76151 32.7938 2.46318 36.7814C6.35772 39.7538 16.2941 38.7143 24.5034 38.249C26.0403 38.1618 27.7414 38.4867 28.425 37.2344C28.8357 36.4836 28.619 34.3901 28.5119 33.4697C27.8797 28.0055 27.231 18.8243 29.1293 13.4675C29.1796 13.3245 29.2273 13.183 29.2719 13.0421" transform="translate(178.2012 175.4781)" id="Fill-148" fill="#1D5E69" stroke="none" />
          <path d="M0.0849417 7.34572C0.0849417 7.34572 -1.1175 0.400593 5.52585 0.104411C12.1681 -0.191771 29.4999 0.236284 29.4999 0.236284L27.7288 6.01263L2.7781 7.21597L0.0849417 7.34572Z" transform="translate(177.1265 207.767)" id="Fill-150" fill="#1D5E69" stroke="none" />
          <path d="M1.26942 0C1.26942 0 -0.0761032 0.529087 0.0033884 4.03329L0.635082 4.00245C0.635082 4.00245 0.478748 1.98341 1.26942 0" transform="translate(179.9011 210.9496)" id="Fill-152" fill="#FFFFFF" stroke="none" />
          <path d="M1.27153 0C1.27153 0 -0.0761078 0.615229 0.00338325 4.11943L0.635072 4.08912C0.635072 4.08912 0.480859 1.98341 1.27153 0" transform="translate(178.199 210.9496)" id="Fill-154" fill="#FFFFFF" stroke="none" />
          <path d="M2.9698 13.2708C3.20139 3.25003 7.37309 0 7.37309 0C3.37574 2.05094 0.235305 5.78274 1.07955e-05 12.4019C1.07955e-05 12.4019 -0.0407947 18.8366 4.89508 23.3527C9.83095 27.8683 17.841 29.7868 17.841 29.7868C17.841 29.7868 2.73822 23.291 2.9698 13.2708" transform="translate(178.2007 177.8158)" id="Fill-156" fill="#185056" stroke="none" />
          <path d="M2.31021 23.8658C2.14328 22.7874 1.62552 19.2699 1.34995 16.3496C1.12155 13.9285 1.1136 11.9334 1.1136 11.9334C1.1136 11.9334 1.22913 12.747 0.877775 13.592C0.526423 14.4369 0.180371 14.8942 0.180371 14.8942C-0.493715 11.9334 0.905862 9.44965 1.36002 8.41594C3.46972 3.61853 6.98482 0 6.98482 0C6.98482 0 7.90374 2.3333 7.45011 11.1986C6.91434 21.6803 2.31021 23.8658 2.31021 23.8658" transform="translate(159.8616 158.5331)" id="Fill-158" fill="#F2F0F0" stroke="none" />
          <path d="M32.8299 1.35064L32.8299 3.72435L0 2.6013L0 0L32.8299 1.35064Z" transform="translate(164.2493 157.6063)" id="Fill-160" fill="#F66153" stroke="none" />
          <path d="M3.23807 3.62361C2.75318 5.32999 1.7023 6.52482 0.889905 6.29298C0.716085 6.243 0.499339 6.22013 0.354666 6.05529C-0.134469 5.50015 -0.0830651 4.12346 0.297962 2.78239C0.707076 1.34295 1.37427 0.0141212 2.12308 0.000295787C2.39282 -0.00555342 2.51947 0.0768672 2.64613 0.113026C3.458 0.345399 3.72297 1.91724 3.23807 3.62361" transform="translate(163.8564 160.1331)" id="Fill-162" fill="#E2752B" stroke="none" />
          <path d="M3.18303 3.53934C2.69813 5.24571 1.64726 6.44107 0.834854 6.20923C0.0229835 5.97633 -0.242517 4.40502 0.242379 2.69865C0.727276 0.99228 1.77868 -0.203084 2.59055 0.0287571C3.40242 0.261662 3.66739 1.83297 3.18303 3.53934" transform="translate(163.615 160.1322)" id="Fill-164" fill="#F5883D" stroke="none" />
          <path d="M2.13121 4.8543C1.7062 5.33713 1.24038 5.57748 0.834974 5.46209C0.0225742 5.22918 -0.242396 3.65788 0.2425 1.95151C0.466665 1.1608 0.813246 0.479634 1.20063 0C1.20063 0 0.223952 2.05254 0.522309 4.00404C0.715737 5.27172 2.13121 4.8543 2.13121 4.8543" transform="translate(163.615 160.8793)" id="Fill-166" fill="#F9C19B" stroke="none" />
          <path d="M2.62866 12.2562C2.62866 12.2562 -0.909231 6.66278 0.223783 0C0.223783 0 2.46703 2.57578 3.87031 5.18718C3.87031 5.18718 6.95086 4.68309 2.62866 12.2562" transform="translate(213.7866 179.3854)" id="Fill-168" fill="#D8B7B4" stroke="none" />
          <path d="M1.28008 18.4856C1.28008 18.4856 -3.22019 7.90227 4.65527 0C4.65527 0 6.76497 11.7122 1.28008 18.4856" transform="translate(215.1299 173.156)" id="Fill-170" fill="#1D5E69" stroke="none" />
          <path d="M1.28008 18.4856C1.28008 18.4856 -3.22019 7.90227 4.65527 0C4.65527 0 1.80949 4.27151 1.54929 8.37446C1.3797 11.0428 2.99974 15.7466 2.99974 15.7466C2.53233 16.7149 1.96582 17.6385 1.28008 18.4856" transform="translate(215.1299 173.156)" id="Fill-172" fill="#185056" stroke="none" />
          <path d="M6.23817 3.39375C5.92869 4.20359 5.43478 4.30037 4.35158 4.29825C3.84973 4.29718 3.30283 4.26049 2.74268 4.1249C1.99387 3.9441 1.33092 3.64632 0.813163 3.28527C-0.0156651 2.70779 -0.0925065 2.08565 0.0680657 1.41406C0.221219 0.774366 0.523285 0.221882 1.45333 0.0644849C2.10728 -0.0461182 2.88523 -0.0179357 3.68915 0.176152C4.73579 0.429263 5.61496 0.911024 6.16345 1.47255C6.63616 1.95537 6.42365 2.90933 6.23817 3.39375" transform="translate(165.3628 143.9494)" id="Fill-174" fill="#ED8888" stroke="none" />
          <path d="M5.13773 26.8748C5.13773 19.6468 4.45993 9.19689 4.58288 1.71097C4.60779 0.204533 2.79645 -0.569689 1.72915 0.49008C-2.52575 4.71533 2.44616 11.7333 2.16688 17.7346C1.86269 24.2506 2.638 33.8401 2.638 33.8401L5.50127 34.5702C5.50127 34.5702 5.13773 34.1028 5.13773 26.8748" transform="translate(171.6255 175.2361)" id="Fill-176" fill="#D8B7B4" stroke="none" />
          <path d="M7.74577 0.49008C3.49087 4.71533 0.974707 10.3907 0.694367 16.3914C0.376932 23.2132 0.00650303 31.653 0.00650303 33.9512C0.00650303 35.4609 -0.14665 37.498 1.03353 38.8476C3.00014 41.0958 6.88515 41.6052 8.26988 35.8326C9.96941 28.7486 10.4623 10.0434 10.5995 1.71097C10.6244 0.204533 8.81307 -0.569689 7.74577 0.49008" transform="translate(165.6091 175.2361)" id="Fill-178" fill="#1D5E69" stroke="none" />
          <path d="M0.0859214 7.43068C0.0859214 7.43068 -1.13029 0.405786 5.58883 0.106413C7.36307 0.026651 10.2608 -0.00153156 13.0213 6.36814e-05L12.0011 5.30316C11.8103 6.29806 10.6031 7.25042 9.59413 7.29934L2.81035 7.29934L0.0859214 7.43068Z" transform="translate(161.3401 208.5679)" id="Fill-180" fill="#1D5E69" stroke="none" />
          <path d="M1.28325 0C1.28325 0 -0.07711 0.535469 0.00344109 4.07956L0.64096 4.07956C0.64096 4.07956 0.483568 2.00628 1.28325 0" transform="translate(164.1467 211.7878)" id="Fill-182" fill="#FFFFFF" stroke="none" />
          <path d="M1.28537 0C1.28537 0 -0.0771155 0.622675 0.00343596 4.16676L0.642018 4.13592C0.642018 4.13592 0.485685 2.00628 1.28537 0" transform="translate(162.425 211.7878)" id="Fill-184" fill="#FFFFFF" stroke="none" />
          <path d="M9.48698 0C9.48698 0 9.60727 1.15867 7.49652 2.74168C6.86112 3.21866 5.40219 4.28161 4.58131 4.72243C3.48592 5.31161 2.59615 5.6482 1.75725 5.97044C1.51454 6.06349 0.870131 6.19111 0.739765 6.07094C-1.54958 3.96523 2.20558 1.40115 2.20558 1.40115L9.48698 0Z" transform="translate(153.6421 150.7372)" id="Fill-186" fill="#185056" stroke="none" />
          <path d="M0 4.12504C0 4.12504 0.321145 4.51375 1.77848 4.20002C3.08532 3.91819 5.44515 3.00465 6.99576 1.84491C10.2761 -0.608566 8.16958 0.0928076 8.16958 0.0928076C8.16958 0.0928076 6.74775 1.46312 4.60572 2.55745C3.31001 3.21948 0.664017 4.68922 0 4.12504" transform="translate(153.9402 152.5413)" id="Fill-188" fill="#EFD3CD" stroke="none" />
          <path d="M4.73359 0.382685C4.73359 0.382685 10.8984 -0.56914 10.1454 0.529447C9.75001 1.10639 5.10296 3.76672 3.06799 5.47415C1.85018 6.49617 -0.266402 6.29517 0.0277156 4.76693C0.220084 3.76406 1.4771 1.74023 4.73359 0.382685" transform="translate(151.6182 152.414)" id="Fill-190" fill="#F66153" stroke="none" />
          <path d="M3.63063 0.0786985C3.63063 0.0786985 0.189719 2.07541 0 3.00543C0 3.00543 3.4425 0.470596 4.53206 0L3.63063 0.0786985Z" transform="translate(154.7554 152.4625)" id="Fill-192" fill="#FFADA9" stroke="none" />
          <path d="M0 2.0217C0 2.0217 1.99629 0.729023 2.62746 0C2.62746 0 2.13249 1.14644 0.616324 2.23546L0 2.0217Z" transform="translate(159.918 153.0308)" id="Fill-194" fill="#D8B7B4" stroke="none" />
          <path d="M0 0L27.6879 2.76454L27.4271 0.942784L0 0Z" transform="translate(169.177 160.3876)" id="Fill-196" fill="#D8B7B4" stroke="none" />
          <path d="M16.109 35.3866C16.109 35.3866 28.3194 8.32129 4.53247 0C4.53247 0 -11.2587 20.1324 16.109 35.3866" transform="translate(177.1265 125.944)" id="Fill-198" fill="#1D5E69" stroke="none" />
          <path d="M11.5766 35.3866C11.5766 35.3866 23.7869 8.32129 0 0C0 0 6.58134 1.87068 9.83041 14.1062C13.0896 26.3788 5.97986 31.7761 5.97986 31.7761C7.60625 33.0012 9.46263 34.2083 11.5766 35.3866" transform="translate(181.6589 125.944)" id="Fill-200" fill="#185056" stroke="none" />
          <path d="M0.549026 0.275445C0.549026 0.427525 0.426078 0.551422 0.274513 0.551422C0.122948 0.551422 0 0.427525 0 0.275445C0 0.123897 0.122948 0 0.274513 0C0.426078 0 0.549026 0.123897 0.549026 0.275445" transform="translate(149.4614 147.9609)" id="Fill-202" fill="#D8B7B4" stroke="none" />
          <path d="M0.548492 0.275444C0.548492 0.426991 0.426075 0.550888 0.273981 0.550888C0.122417 0.550888 0 0.426991 0 0.275444C0 0.123365 0.122417 0 0.273981 0C0.426075 0 0.548492 0.123365 0.548492 0.275444" transform="translate(148.1575 148.6147)" id="Fill-204" fill="#D8B7B4" stroke="none" />
          <path d="M0.549026 0.275444C0.549026 0.426991 0.426078 0.550888 0.274513 0.550888C0.122948 0.550888 0 0.426991 0 0.275444C0 0.123365 0.122948 0 0.274513 0C0.426078 0 0.549026 0.123365 0.549026 0.275444" transform="translate(149.4614 149.2493)" id="Fill-206" fill="#D8B7B4" stroke="none" />
          <path d="M14.3194 24.5028C12.5038 24.3848 10.9119 25.5121 9.07245 26.3411C6.11485 27.6731 5.36339 27.3121 5.01628 26.7766C4.71686 26.314 4.89969 25.9157 5.1583 25.6227C3.01893 26.3448 2.3512 25.9503 2.00621 25.4185C1.38777 24.4656 2.41162 23.7584 2.74495 23.5313C1.06662 24.0003 0.494287 23.6446 0.187981 23.1714C-0.43364 22.2116 0.656979 21.4692 0.996672 21.2369C1.13128 21.1459 1.52767 20.9231 2.0804 20.6227C1.45348 20.6163 1.15671 20.3749 0.969645 20.0851C0.393598 19.1966 1.40314 18.5085 1.71792 18.2936C2.38035 17.8427 9.82761 13.9961 9.82761 13.9961C10.8016 13.4803 11.9225 13.3123 13.0041 13.5196L21.3984 15.1298L45.3204 0L62.0056 12.5332C62.0056 12.5332 40.834 19.3513 37.0073 22.6694C34.0136 25.2654 31.7958 25.6227 27.7985 25.9104C27.0984 25.9609 22.003 26.0492 21.3305 25.846C19.9108 25.4174 17.1509 24.6863 14.3194 24.5028" transform="translate(160.4565 187.597)" id="Fill-208" fill="#F9E8DE" stroke="none" />
          <path d="M0 4.33597C0 4.33597 5.6709 0.258015 6.51669 0.137309C6.98198 0.0708407 8.0249 0.0267059 8.8691 0.000118629C9.07948 -0.00679406 9.13089 0.290451 8.9311 0.355324L6.41971 0.670649L0 4.33597Z" transform="translate(165.6147 208.884)" id="Fill-210" fill="#E2A181" stroke="none" />
          <path d="M0 3.59753C0 3.59753 6.01483 0.0502571 6.86857 0.00612218C7.33756 -0.0178064 8.37996 0.0327095 9.22309 0.0832253C9.43348 0.0954555 9.45839 0.395892 9.2533 0.442154L6.72389 0.528828L0 3.59753Z" transform="translate(163.3088 207.4612)" id="Fill-212" fill="#E2A181" stroke="none" />
          <path d="M0 3.59753C0 3.59753 6.01536 0.0502571 6.86857 0.00612218C7.33809 -0.0178064 8.37996 0.0327095 9.22309 0.0832253C9.43348 0.0954555 9.45839 0.395892 9.2533 0.442154L6.72389 0.528828L0 3.59753Z" transform="translate(162.6479 204.6347)" id="Fill-214" fill="#E2A181" stroke="none" />
          <path d="M33.1685 26.8779C18.8532 32.005 4.46529 33.5109 4.46529 33.5109L0 12.2506C0 12.2506 8.60148 7.39365 26.3699 2.40215C33.8648 0.296437 37.6402 -2.22457 43.1187 3.55498C51.5511 12.45 45.4796 22.4681 33.1685 26.8779" transform="translate(190.5225 179.9969)" id="Fill-216" fill="#FFBB49" stroke="none" />
          <path d="M5.1505 0L0 1.61917L5.66348 24.1051L11.1447 24.5922L5.1505 0Z" transform="translate(186.8542 190.169)" id="Fill-218" fill="#F7F6F5" stroke="none" />
          <path d="M0 10.5578L1.25278 15.6982C1.25278 15.6982 25.3667 2.27747 29.9422 0C29.9422 0 13.1902 4.07689 0 10.5578" transform="translate(192.29 180.7816)" id="Fill-220" fill="#F5883D" stroke="none" />
          <path d="M6.56151 6.07053C7.36385 5.18517 7.29972 3.81539 6.41737 3.01033C5.8551 2.4972 5.09676 2.33874 4.4126 2.51953C4.5276 1.81922 4.29866 1.0769 3.73693 0.563769C2.8551 -0.241294 1.48944 -0.176421 0.687113 0.708936C0.670685 0.727015 0.656377 0.74669 0.640478 0.765301C0.62511 0.781785 0.609212 0.795079 0.593314 0.812094C-0.882043 2.43977 0.858814 6.44009 0.858814 6.44009C0.858814 6.44009 4.99236 7.80136 6.46772 6.17369C6.48308 6.1572 6.49368 6.14072 6.50693 6.12423C6.52548 6.10615 6.54456 6.08967 6.56151 6.07053" transform="translate(179.1797 116.5387)" id="Fill-222" fill="#F66153" stroke="none" />
          <path d="M6.94916 0.952811C6.2809 -0.0378306 4.93856 -0.298386 3.95128 0.372145C3.32118 0.799137 2.98944 1.50104 3.00374 2.21039C2.35192 1.93388 1.57926 1.98174 0.950221 2.40873C-0.0381203 3.07873 -0.297262 4.42564 0.370995 5.41735C0.384773 5.43755 0.400671 5.45563 0.41498 5.47584C0.426638 5.49445 0.436177 5.51306 0.448896 5.5322C1.67783 7.35503 5.96241 6.60101 5.96241 6.60101C5.96241 6.60101 8.25546 2.89156 7.02653 1.06873C7.01434 1.05065 7.00109 1.03576 6.98837 1.01822C6.97513 0.996946 6.96347 0.974081 6.94916 0.952811" transform="translate(85.4856 138.0917)" id="Fill-224" fill="#F66153" stroke="none" />
          <path d="M0.689043 18.3158C2.52105 20.5699 8.71554 18.4147 13.0849 14.9514C13.0849 14.9514 17.3001 16.9407 21.9773 13.0877C21.9773 13.0877 19.5444 16.1984 20.3647 17.7628C21.1856 19.3272 25.9439 16.9465 25.9439 16.9465C25.9439 16.9465 24.2757 20.6629 25.8258 22.3762C27.3753 24.09 31.4034 20.6087 31.4034 20.6087C31.4034 20.6087 30.6042 24.9897 32.2926 26.268C33.981 27.5464 36.1321 23.6332 36.1321 23.6332C36.1321 23.6332 35.6064 27.9489 37.3101 28.7805C39.0134 29.6117 43.3923 21.1707 42.0229 15.1322C40.8745 10.0668 31.1289 -0.149087 18.0886 0.286944C18.0886 0.286944 9.48607 -1.29979 5.06106 2.98928C0.635519 7.27887 -1.0852 16.133 0.689043 18.3158" transform="translate(134.3989 94.65501)" id="Fill-226" fill="#1D5E69" stroke="none" />
          <path d="M1.32892 1.04745C1.32892 1.04745 2.36178 0.273765 3.30402 0.164757C4.24626 0.0552174 3.19644 -0.380814 0.916627 0.848049C-1.36372 2.07744 1.32892 1.04745 1.32892 1.04745" transform="translate(149.3782 92.17036)" id="Fill-228" fill="#185056" stroke="none" />
          <path d="M1.45588 1.99415C1.45588 1.99415 2.78391 0.518023 3.64878 0.126658C4.51311 -0.264175 2.4315 0.212269 0.630763 2.07816C-1.16945 3.94406 1.45588 1.99415 1.45588 1.99415" transform="translate(153.1597 92.97025)" id="Fill-230" fill="#185056" stroke="none" />
          <path d="M30.7239 32.6526C28.9671 36.7045 28.5792 45.8218 27.629 50.4007C26.7557 54.5935 25.8007 62.2639 18.9003 69.4483C12.2639 76.3584 10.7239 78.7549 3.79224 66.6838C0.479051 60.9064 -0.995775 52.8541 0.722295 45.7404C2.82934 37.0235 9.06622 32.4037 13.9984 27.1309C16.8277 24.1122 19.0402 20.6091 20.9719 16.4795C22.6274 12.9301 24.1521 9.17653 26.3042 6.13334C27.8394 3.96382 32.4594 -2.20922 40.47 0.821202C46.2204 2.99657 43.4313 3.23373 42.7345 11.5045C41.9252 21.1137 35.028 22.7249 30.7239 32.6526" transform="translate(108.6584 91.74634)" id="Fill-232" fill="#1D5E69" stroke="none" />
          <path d="M18.3368 0.0333445C13.4216 4.31496 7.79626 8.14885 3.85827 14.1953C0.591178 19.2102 -1.13696 26.2436 0.834421 32.7134C0.851379 32.7692 0.913912 32.7405 0.899074 32.6815C-0.954662 25.4173 1.77772 18.1505 5.56203 13.1765C9.43855 8.08132 14.4423 5.10301 18.4873 0.343352C18.6171 0.190741 18.4873 -0.0979967 18.3368 0.0333445" transform="translate(107.9543 116.9209)" id="Fill-234" fill="#1D5E69" stroke="none" />
          <path d="M36.6314 8.30854e-06C31.181 0.0712623 27.4995 5.48231 24.403 11.0694C22.3998 14.6842 20.4338 18.3394 18.2467 21.75C18.1434 21.9111 18.0337 22.0605 17.9293 22.2201C15.359 24.8325 12.9425 27.7502 10.4226 30.4547C8.30817 32.7242 6.1725 34.991 4.39561 37.7795C0.944098 43.1959 -0.539209 50.3143 0.175152 57.4445C0.184162 57.5322 0.281671 57.5243 0.275311 57.4344C-0.278477 49.815 1.60599 42.4073 5.46821 36.9303C8.89163 32.076 12.9907 28.2357 16.7713 23.935C15.1375 26.2555 13.4036 28.417 11.6521 30.586C7.55406 35.661 4.00716 41.1306 2.80737 48.7685C1.7247 55.6621 2.4221 63.1831 4.74219 69.4625C4.82433 69.6842 5.09195 69.4965 5.02359 69.2673C2.98808 62.4504 2.10838 55.0782 3.4751 47.8332C4.92926 40.1255 8.95257 34.9639 13.1275 29.8953C17.1635 24.9963 20.5784 19.5438 23.7729 13.5819C26.9489 7.65502 30.6998 0.204199 36.6436 0.226532C36.7491 0.227064 36.7369 -0.00158693 36.6314 8.30854e-06" transform="translate(110.3958 92.0676)" id="Fill-236" fill="#185056" stroke="none" />
          <path d="M34.1145 0.00592307C29.5756 2.76834 23.433 9.10144 20.4267 14.3514C18.6567 17.4419 17.132 20.7621 15.4664 23.9563C13.7468 27.2515 11.7335 30.0161 9.66727 32.8854C2.58196 42.7275 -1.04867 56.7432 0.265584 70.5723C0.285192 70.7808 0.519426 70.7595 0.502998 70.5473C-0.59716 56.1216 3.17814 42.4844 10.601 32.3701C12.467 29.8278 14.2306 27.2675 15.7674 24.3221C17.3106 21.364 18.7346 18.2943 20.3472 15.4042C23.459 9.82833 29.9359 3.49577 34.5268 0.205328C34.5931 0.157471 34.1834 -0.0360849 34.1145 0.00592307" transform="translate(116.1802 93.01271)" id="Fill-238" fill="#185056" stroke="none" />
          <path d="M32.7229 0.0306722C28.211 4.66005 23.4209 11.4292 20.8141 17.8021C19.6106 20.7448 18.4686 23.7396 17.1352 26.576C15.6827 29.667 13.9397 32.4523 12.3106 35.362C9.3859 40.5906 6.70651 46.2101 4.42671 52.0211C2.28362 57.4863 0.227451 63.7923 0.000106202 70.0935C-0.00413333 70.2041 0.119873 70.2046 0.136301 70.1041C1.28468 63.1978 2.84801 56.9163 5.38537 50.7252C7.88457 44.6277 10.7701 38.8226 13.9317 33.3504C16.7998 28.3866 19.0319 23.1388 21.2942 17.6235C23.8416 11.4122 30.1675 3.46735 33.3901 0.0577912C33.4447 0.000362679 32.7764 -0.0240976 32.7229 0.0306722" transform="translate(121.2253 94.90649)" id="Fill-240" fill="#185056" stroke="none" />
          <path d="M16.6083 0.0868262C16.6369 0.0341834 16.5818 -0.0338801 16.5532 0.0192945C9.12182 13.5198 -0.616909 27.2415 0.0306789 45.5176C0.0375682 45.7191 0.247425 45.6872 0.252194 45.4937C0.47212 36.8847 1.91303 28.8309 5.30254 21.513C8.73338 14.1074 12.8277 7.15905 16.6083 0.0868262" transform="translate(118.9675 119.7543)" id="Fill-242" fill="#185056" stroke="none" />
          <path d="M7.68026 13.7322C8.15244 8.92899 9.19165 4.61493 10.8074 0.325337C10.8901 0.10679 10.6532 -0.126115 10.5435 0.0796709C3.21285 13.7711 10.056 35.0319 0.0279019 47.0062C-0.0425803 47.0897 0.0337313 47.2588 0.110043 47.1759C4.46086 42.4258 6.12594 35.2791 6.76399 27.8926C7.17099 23.1851 7.21815 18.4313 7.68026 13.7322" transform="translate(130.8247 117.2504)" id="Fill-244" fill="#1D5E69" stroke="none" />
          <path d="M4.1695 0.332169C4.27072 0.0375817 3.94904 -0.136831 3.83881 0.136486C1.61147 5.66398 0.493289 12.0838 0.476331 18.3988C0.467852 21.5403 0.801716 24.6579 0.746602 27.8022C0.686718 31.2463 0.291381 34.6457 0.000443246 38.0606C-0.00697594 38.1478 0.0809944 38.16 0.0958328 38.0782C1.19546 32.0933 1.15413 26.5137 0.968117 20.4194C0.752431 13.3179 1.97077 6.71312 4.1695 0.332169" transform="translate(138.2568 114.9448)" id="Fill-246" fill="#1D5E69" stroke="none" />
        </g>
        <g id="Group-251" transform="translate(167.6506 100.1288)">
          <path d="M0.057128 0.238521C0.0587323 0.241177 0.0608714 0.243302 0.0630105 0.245427L0.0630105 0.245427C3.29784 3.38817 7.04551 5.92106 8.36479 10.4806L8.36479 10.4806C9.43433 14.1779 8.73485 18.1335 7.02091 21.5211L7.02091 21.5211C6.98989 21.5822 7.07492 21.6342 7.11343 21.5763L7.11343 21.5763C8.44126 19.5465 9.24716 17.249 9.44235 14.885L9.44235 14.885C9.46695 14.588 9.48192 14.29 9.48674 13.9909L9.48674 13.9909C9.50599 12.8732 9.3878 11.7454 9.12309 10.6299L9.12309 10.6299C8.03697 6.05599 4.25401 2.45268 0.352856 0.0366547L0.352856 0.0366547C0.336813 0.0260302 0.317561 0.0180617 0.297775 0.0122182L0.297775 0.0122182C0.269432 0.00371859 0.23788 0 0.206864 0L0.206864 0C0.0608714 0 -0.0829819 0.0897775 0.057128 0.238521" transform="translate(0.1082498 0.1450251)" id="Clip-250" fill="none" stroke="none" />
          <g clip-path="url(#mask_2)">
            <path d="M0.057128 0.238521C0.0587323 0.241177 0.0608714 0.243302 0.0630105 0.245427L0.0630105 0.245427C3.29784 3.38817 7.04551 5.92106 8.36479 10.4806L8.36479 10.4806C9.43433 14.1779 8.73485 18.1335 7.02091 21.5211L7.02091 21.5211C6.98989 21.5822 7.07492 21.6342 7.11343 21.5763L7.11343 21.5763C8.44126 19.5465 9.24716 17.249 9.44235 14.885L9.44235 14.885C9.46695 14.588 9.48192 14.29 9.48674 13.9909L9.48674 13.9909C9.50599 12.8732 9.3878 11.7454 9.12309 10.6299L9.12309 10.6299C8.03697 6.05599 4.25401 2.45268 0.352856 0.0366547L0.352856 0.0366547C0.336813 0.0260302 0.317561 0.0180617 0.297775 0.0122182L0.297775 0.0122182C0.269432 0.00371859 0.23788 0 0.206864 0L0.206864 0C0.0608714 0 -0.0829819 0.0897775 0.057128 0.238521" transform="translate(0.1082498 0.1450251)" id="Fill-249" fill="none" stroke="none" />
          </g>
        </g>
        <g id="Group-368" transform="translate(49.5332 94.07281)">
          <path d="M8.88783 0.236615C9.0071 0.0864197 8.80513 -0.0813516 8.6689 0.0438111C6.04598 2.45013 3.90862 4.87616 0.0256634 4.43729C0.00339935 4.43463 -0.0119735 4.46871 0.012411 4.47777C3.46864 5.71821 6.88353 2.75745 8.88783 0.236615" transform="translate(99.0316 12.29833)" id="Fill-252" fill="#185056" stroke="none" />
          <path d="M6.02933 0.198842C6.11467 0.0347989 5.86394 -0.0834399 5.77382 0.0742119C4.45441 2.37348 2.57257 4.70204 0.0212103 5.67511C-0.0180169 5.69056 0.00212678 5.74435 0.0413539 5.73636C2.67381 5.1931 4.84456 2.47467 6.02933 0.198842" transform="translate(112.5469 18.30035)" id="Fill-254" fill="#185056" stroke="none" />
          <path d="M6.18903 0.099538C6.23462 0.0441468 6.15987 -0.0362769 6.11005 0.018049C4.62578 1.62652 2.35007 3.30157 0.0584624 3.15244C-0.0162813 3.14765 -0.0162813 3.24725 0.0409692 3.27175C2.27533 4.21713 4.91521 1.64037 6.18903 0.099538" transform="translate(105.0564 15.13434)" id="Fill-256" fill="#185056" stroke="none" />
          <path d="M5.75274 0.0735639C5.78561 0.0282923 5.71511 -0.025501 5.67641 0.0133793C3.96048 1.73264 2.44388 3.10889 0.084412 3.83324C-0.0353899 3.86946 -0.0284987 4.07717 0.110387 4.06439C2.49954 3.85028 4.41107 1.91585 5.75274 0.0735639" transform="translate(110.7953 19.03157)" id="Fill-258" fill="#185056" stroke="none" />
          <path d="M4.24882 0.0131862C4.25466 0.00572967 4.24511 -0.00492248 4.23822 0.00253402C3.03437 1.28772 1.73563 2.42057 0.0875616 3.07408C-0.0905511 3.14439 0.0303111 3.42454 0.207364 3.38193C2.04521 2.9356 3.14304 1.42779 4.24882 0.0131862" transform="translate(110.1586 19.4979)" id="Fill-260" fill="#185056" stroke="none" />
          <path d="M10.3292 0.168672C10.3992 0.0685419 10.2349 -0.0635447 10.1591 0.0344551C7.57962 3.33449 4.12869 4.772 0.0978332 5.35041C-0.056425 5.37225 -0.0145473 5.60287 0.128049 5.61139C4.22146 5.86225 8.04292 3.43888 10.3292 0.168672" transform="translate(97.98776 10.31153)" id="Fill-262" fill="#185056" stroke="none" />
          <path d="M2.6169 1.10933C2.6169 1.10933 3.6262 8.92161 0.252667 12.5561C0.252667 12.5561 -0.463493 12.8294 0.515595 11.3977C1.49415 9.96606 2.90792 4.32628 2.2013 1.27657C2.2013 1.27657 1.1199 -1.48074 2.6169 1.10933" transform="translate(112.0313 1.67693)" id="Fill-264" fill="#185056" stroke="none" />
          <path d="M3.21504 10.822C3.21504 10.822 4.60177 3.89389 0 0C0 0 3.29561 3.29418 2.65313 11.1065L2.32606 13.0313L3.21504 10.822Z" transform="translate(118.5941 8.209479)" id="Fill-266" fill="#185056" stroke="none" />
          <path d="M2.21211 0.123222C2.19833 -0.0615927 1.92321 -0.0280385 1.9301 0.154113C2.02446 2.80597 1.6571 5.78271 0.00744195 7.96693C-0.0180027 8.00102 0.0275856 8.03564 0.057271 8.00794C2.0022 6.14541 2.40878 2.684 2.21211 0.123222" transform="translate(122.2024 20.63981)" id="Fill-268" fill="#185056" stroke="none" />
          <path d="M1.90866 0.0395491C1.90442 -0.0163746 1.81589 -0.0110486 1.81165 0.0432774C1.61393 2.47037 1.34676 4.50599 0.0178039 6.59435C-0.0495185 6.6998 0.088837 6.85319 0.186905 6.75306C1.86837 5.03434 2.07511 2.31645 1.90866 0.0395491" transform="translate(121.2402 22.15721)" id="Fill-270" fill="#185056" stroke="none" />
          <path d="M3.42541 0.0120515C3.42965 0.00352981 3.41799 -0.00499191 3.41322 0.00352981C2.52955 1.52945 1.51865 2.92754 0.0608889 3.93843C-0.0970799 4.04762 0.083683 4.29315 0.246953 4.2106C1.93637 3.35896 2.66684 1.64076 3.42541 0.0120515" transform="translate(117.4001 23.09648)" id="Fill-272" fill="#185056" stroke="none" />
          <path d="M0.551911 8.79667C0.551911 8.79667 2.56416 5.04872 2.09608 0.290934C2.07011 0.0272935 1.89889 -0.153793 1.91903 0.185478C1.91903 0.185478 2.13319 4.30679 0.0954982 8.7807C0.0954982 8.7807 -0.126612 9.03741 0.10663 9.23448C0.27149 9.37349 0.551911 8.79667 0.551911 8.79667" transform="translate(109.3404 0.07552867)" id="Fill-274" fill="#185056" stroke="none" />
          <path d="M6.91137 4.76276C6.91137 4.76276 4.96803 -0.6741 2.06045 0.0699526C-0.412449 0.70269 -1.93383 6.67215 5.18378 9.29471L6.91137 4.76276Z" transform="translate(82.7803 16.94741)" id="Fill-276" fill="#F4DED3" stroke="none" />
          <path d="M3.38279 5.37072C3.3881 5.3606 3.39393 5.35102 3.39552 5.3393C3.8074 3.19289 2.60143 0.380191 0.285438 0.000442159C0.254162 -0.00488391 0.227657 0.0393225 0.261054 0.0568985C1.28785 0.585778 2.09413 1.38682 2.55955 2.4547C2.82778 3.06933 2.92426 3.70579 3.00006 4.35131C2.39045 3.34202 1.21682 2.69863 0.0352322 2.89144C-0.0193678 2.90049 -0.00664548 2.98624 0.0468943 2.98571C1.48293 2.97133 2.66928 4.10099 3.06898 5.42292C3.12729 5.61466 3.38704 5.55128 3.38279 5.37072" transform="translate(84.71752 18.84622)" id="Fill-278" fill="#D8B7B4" stroke="none" />
          <path d="M13.8237 7.77341C13.8237 7.77341 7.7127 0 0.260071 0C0.260071 0 -1.62389 8.33105 4.74946 16.6616L13.8237 7.77341Z" transform="translate(67.27466 69.86938)" id="Fill-280" fill="#CCAEAC" stroke="none" />
          <path d="M6.24034 5.32767C6.24034 5.32767 3.75366 0.870813 0.132036 0C0.132036 0 -0.725131 4.99373 1.92853 9.67109C4.58273 14.3484 6.24034 5.32767 6.24034 5.32767" transform="translate(70.20977 72.69221)" id="Fill-282" fill="#ED8888" stroke="none" />
          <path d="M7.25226 5.25577C7.25226 5.25577 3.62162 0.870813 0 0C0 0 1.19113 0.213043 3.84532 4.8904C5.13081 7.15664 4.13476 10.9882 4.87795 9.40691C5.66833 7.72494 7.25226 5.25577 7.25226 5.25577" transform="translate(70.34138 72.69231)" id="Fill-284" fill="#D35454" stroke="none" />
          <path d="M0 6.14034C0 6.14034 3.76475 -0.350012 12.0088 0.0148243C12.0088 0.0148243 11.4697 10.855 7.97001 13.3007L0 6.14034Z" transform="translate(94.65253 69.86979)" id="Fill-286" fill="#CCAEAC" stroke="none" />
          <path d="M0 5.32767C0 5.32767 2.48668 0.870813 6.10831 0C6.10831 0 6.96547 4.9932 4.31181 9.67056C1.65761 14.3484 0 5.32767 0 5.32767" transform="translate(98.82964 71.26444)" id="Fill-288" fill="#ED8888" stroke="none" />
          <path d="M0 5.25577C0 5.25577 3.63064 0.870813 7.25226 0C7.25226 0 6.39456 0.238608 3.74143 4.91597C2.45541 7.18221 3.1175 10.9877 2.3743 9.40638C1.58393 7.72441 0 5.25577 0 5.25577" transform="translate(97.68606 71.2646)" id="Fill-290" fill="#D35454" stroke="none" />
          <path d="M10.743 12.8428C10.743 12.8428 10.3178 0.803694 5.72293 0.0601738C4.08228 -0.205065 2.81111 0.437792 1.85588 1.37465C0.0243935 3.17007 -0.467006 5.94335 0.450591 8.34382L1.89935 12.1344L10.743 12.8428Z" transform="translate(91.8553 102.3894)" id="Fill-292" fill="#D8B7B4" stroke="none" />
          <path d="M8.98885 9.84206C8.98885 9.84206 11.5996 7.59711 17.4047 3.68192C25.9419 -2.07717 36.344 -0.782398 44.8075 5.49385C53.6214 12.0295 69.29 16.227 69.29 16.227C69.29 16.227 76.7374 36.0091 69.3998 36.2509C32.8183 37.4572 19.0326 28.0551 19.0326 28.0551L0 22.0958C0 22.0958 5.44144 16.0933 8.98885 9.84206" transform="translate(23.92758 80.36537)" id="Fill-294" fill="#EFD3CD" stroke="none" />
          <path d="M20.2929 1.57581C14.6786 -1.40253 -0.314102 -1.78122 0.00501642 15.3794C0.264234 29.3215 15.9164 32.802 21.7793 33.6169C23.73 33.888 26.3667 33.7101 28.4362 31.992C30.5057 30.2748 30.7888 28.742 30.854 27.3913C31.021 23.9485 29.6035 22.2154 24.1106 21.1502C14.4814 19.2829 13.047 18.8025 12.2571 14.6779C10.8826 7.50746 15.9965 4.68251 16.473 4.33844L20.2929 1.57581Z" transform="translate(21.03936 82.47127)" id="Fill-296" fill="#D8B7B4" stroke="none" />
          <path d="M20.7607 10.7933C21.6364 10.9456 22.4703 10.3336 22.5705 9.44686C22.8556 6.92922 22.553 2.24121 16.6344 1.23512C12.4573 0.524618 7.79506 3.07741 4.67173 2.94692C1.67721 2.82175 0.134628 0 0.134628 0C0.134628 0 -0.0646881 1.21541 0.0217177 3.04438C0.193999 6.68209 3.15459 7.78086 6.1348 8.29003L18.9499 10.4785L20.7607 10.7933Z" transform="translate(69.77737 108.6805)" id="Fill-298" fill="#D8B7B4" stroke="none" />
          <path d="M0 0C0 0 1.58552 0.863356 0.951526 5.19718L0.174402 5.06243C0.174402 5.06243 0.675875 2.58208 0 0" transform="translate(87.77574 113.962)" id="Fill-300" fill="#FFFFFF" stroke="none" />
          <path d="M0 0C0 0 1.57491 0.970411 0.93986 5.30477L0.163269 5.16949C0.163269 5.16949 0.675872 2.58208 0 0" transform="translate(89.88219 114.2242)" id="Fill-302" fill="#FFFFFF" stroke="none" />
          <path d="M1.46055 8.44101C0.562562 8.37337 -0.10589 7.56487 0.0139116 6.6685C0.352643 4.12423 1.8279 -0.654326 7.86624 0.0748142C11.0224 0.456161 11.6713 9.23833 8.61791 8.99865L3.31694 8.58216L1.46055 8.44101Z" transform="translate(92.00134 109.5109)" id="Fill-304" fill="#D8B7B4" stroke="none" />
          <path d="M2.21316 0C2.21316 0 0.443162 0.454847 0 4.87069L0.796737 4.93088C0.796737 4.93088 0.913888 2.3685 2.21316 0" transform="translate(95.31812 113.2225)" id="Fill-306" fill="#FFFFFF" stroke="none" />
          <path d="M2.22853 0C2.22853 0 0.442632 0.562966 0 4.97828L0.796737 5.03847C0.796737 5.03847 0.928731 2.36851 2.22853 0" transform="translate(93.16943 112.9572)" id="Fill-308" fill="#FFFFFF" stroke="none" />
          <path d="M0.041625 3.18339C0.041625 3.18339 2.42547 5.38679 6.18068 4.29974C8.55392 3.61321 9.84577 0 9.84577 0C10.8021 1.99035 8.31962 5.54018 8.31962 5.54018C8.31962 5.54018 -0.684078 9.20505 0.041625 3.18339" transform="translate(69.87027 105.4973)" id="Fill-310" fill="#D8B7B4" stroke="none" />
          <path d="M1.75164 0C1.75164 0 1.12347 2.3946 0.781562 3.54557C0.610871 4.12132 -0.0485704 4.09096 0.00284905 3.41455C0.0547986 2.73814 0.637376 1.07267 1.75164 0" transform="translate(70.0948 103.7723)" id="Fill-312" fill="#D8B7B4" stroke="none" />
          <path d="M8.5288 0.233763C7.32972 -0.3063 6.09141 0.173579 4.69779 0.819099C3.00413 1.6031 1.33167 3.42674 0.699268 5.11245C-0.743126 8.96267 0.49306 13.3359 0.49306 13.3359C0.248155 12.0582 0.209458 10.9184 0.313357 9.90592C0.793625 5.23761 4.31718 3.27921 4.70892 2.9964L8.5288 0.233763Z" transform="translate(32.80345 83.81331)" id="Fill-314" fill="#CCAAA8" stroke="none" />
          <path d="M0 1.70008C0 1.70008 1.43921 0.734465 2.9696 0.519824L3.30197 0C3.30197 0 0.706619 0.522487 0 1.70008" transform="translate(75.22066 110.5174)" id="Fill-316" fill="#CCAAA8" stroke="none" />
          <path d="M3.32265 3.29591C3.32265 3.29591 3.01519 0.844321 0 0.0139865C0 0.0139865 2.94893 -0.401447 3.32265 3.29591" transform="translate(99.17208 110.3119)" id="Fill-318" fill="#CCAAA8" stroke="none" />
          <path d="M1.05171 15.288C1.05171 15.288 3.17687 14.2121 3.57975 9.17896C3.98262 4.14635 4.14589 2.84892 4.14589 2.84892L0 0C0 0 3.38096 10.3107 1.05171 15.288" transform="translate(66.81953 84.54437)" id="Fill-320" fill="#CCAEAC" stroke="none" />
          <path d="M0 0C0 0 4.49469 3.59137 7.80462 3.88058C11.1145 4.16978 14.6344 4.41957 16.3837 3.31441L16.0736 1.46627L0 0Z" transform="translate(79.93507 104.981)" id="Fill-322" fill="#1D5E69" stroke="none" />
          <path d="M4.17382 4.29739C2.77595 5.1485 0.079882 4.73147 0.000897547 2.53499C-0.0616539 0.791237 3.16134 -0.709651 4.63925 0.356629C5.94116 1.29562 5.35329 3.57944 4.17382 4.29739" transform="translate(87.73864 106.3265)" id="Fill-324" fill="#F9B94B" stroke="none" />
          <path d="M29.2401 32.0924C21.5177 33.8574 11.3865 30.4269 5.44569 27.5918C3.7674 26.7908 1.13865 26.5868 0.00159029 24.949C0.00106019 24.9485 0.000530097 24.9474 0 24.9469C1.1731 23.9866 1.74826 22.5257 2.09494 21.0679C2.51001 19.3247 2.63087 17.5367 2.75968 15.7546C3.01996 12.1531 5.30786 8.59 7.33601 5.82577C7.65407 5.39116 9.80944 2.66421 13.2646 1.40459C15.7174 0.510346 16.4505 0.0954444 19.048 0.0198142C23.689 -0.114935 29.3228 0.361748 32.8098 3.83222C34.205 5.22126 35.2981 6.90004 36.0943 8.69812C37.0278 10.8078 37.5733 13.0767 37.8675 15.361C38.2179 18.0741 37.612 20.8826 39.2346 23.2468C39.3745 23.4497 40.3621 24.9623 40.6966 24.4138C39.4795 26.41 36.7718 27.7149 35.0357 29.2424C33.3919 30.6889 31.4114 31.596 29.2401 32.0924" transform="translate(67.56691 74.62589)" id="Fill-326" fill="#EFD3CD" stroke="none" />
          <path d="M1.17322 17.1111C2.38078 14.6366 4.56107 12.2968 5.22847 9.60131C5.76916 7.41815 6.81558 2.87661 5.94887 0C6.74666 0.0591194 7.53015 0.137413 8.29243 0.229021C8.21079 0.725944 8.18959 1.23618 8.22245 1.7363C8.49121 5.86241 11.4661 11.1539 14.2793 14.072C15.8977 15.7508 17.4292 17.0855 18.3515 19.3773C19.6831 22.6864 21.415 27.1315 17.7308 29.5943C14.5364 31.7301 9.09817 33.3572 5.39386 31.949C-0.322179 29.7765 -1.07015 21.7091 1.17322 17.1111" transform="translate(84.73997 74.75089)" id="Fill-328" fill="#F9E6E4" stroke="none" />
          <path d="M0.135976 3.32185C0.241465 3.28776 0.353316 3.34369 0.388302 3.44808C0.502803 3.7948 0.633207 4.1868 0.897195 4.44459C1.3006 4.84138 1.70506 4.78812 1.97276 4.67414C3.11883 4.1868 2.84159 2.38393 2.85378 2.35623C2.77268 2.34611 2.6921 2.3328 2.61418 2.31096C2.23993 2.20657 1.86727 2.17408 1.80737 1.90511C1.704 1.44068 2.18798 0.641769 2.71967 0.215684C3.32239 -0.266326 3.52594 0.155499 3.86892 0.546965C4.21878 0.945888 4.80719 1.92855 4.18963 2.18527C3.88323 2.31256 3.54874 2.32534 3.21743 2.35996C3.22485 2.3786 3.1888 2.82972 3.19198 3.40281C3.19463 3.83422 3.21054 4.47974 3.61394 4.74977C3.75283 4.84244 3.96858 4.82913 4.25695 4.70929C4.72237 4.51595 5.01393 4.05099 5.32032 3.50879C5.37492 3.41239 5.49684 3.37777 5.59173 3.43316C5.68768 3.48802 5.72108 3.60999 5.66701 3.70639C5.40196 4.17509 5.03884 4.81794 4.40909 5.07945C4.1997 5.16627 4.00992 5.20994 3.83976 5.21047C3.67013 5.21101 3.52064 5.1684 3.39289 5.08265C3.16707 4.93086 3.02924 4.68 2.89831 4.45044C2.66507 4.68266 2.4366 4.91221 2.12808 5.0427C1.6001 5.26693 1.04986 5.15349 0.618364 4.73113C0.286524 4.40571 0.133326 3.94553 0.0103433 3.57537C-0.0246431 3.47045 0.0320773 3.357 0.135976 3.32185" transform="translate(91.86554 92.58356)" id="Fill-330" fill="#185056" stroke="none" />
          <path d="M6.71771 0.351793C5.58914 0.382684 4.45208 0.487607 3.32721 0.590933C2.27232 0.687867 1.17767 0.930735 0.119599 0.811432C-0.0182257 0.795986 -0.0468509 0.621291 0.0862034 0.570161C1.0531 0.198935 2.15623 0.18562 3.17826 0.104664C4.36249 0.0103927 5.53083 -0.0135745 6.71665 0.0066645C6.93823 0.00986013 6.93929 0.345934 6.71771 0.351793" transform="translate(80.66978 93.0419)" id="Fill-332" fill="#185056" stroke="none" />
          <path d="M3.66058 3.07083C3.68126 2.78961 3.61817 2.44662 3.59538 2.15421C3.57789 1.9236 3.49784 1.67806 3.38652 1.47621C3.17819 1.10018 2.77744 0.885544 2.39471 0.86424C1.96215 0.840805 1.53754 1.0613 1.27408 1.43626C1.09385 1.69298 0.995783 1.98644 0.92846 2.29003C0.836753 2.7028 0.919979 3.18374 0.645388 3.52781C0.54732 3.65031 0.341113 3.63167 0.239864 3.52887C-0.116891 3.17043 0.00662117 2.50946 0.0919668 2.06101C0.170421 1.64398 0.343233 1.23121 0.5998 0.893001C1.02918 0.326839 1.6759 -0.0198878 2.39206 0.000883909C3.07482 0.0205904 3.67807 0.389687 4.0608 0.946794C4.27602 1.26103 4.37462 1.63972 4.39371 2.0168C4.40378 2.21759 4.37091 2.41359 4.31737 2.60746C4.25588 2.83222 4.13979 2.98242 4.03801 3.17203C3.94577 3.34512 3.64574 3.27482 3.66058 3.07083" transform="translate(85.01903 86.53117)" id="Fill-334" fill="#185056" stroke="none" />
          <path d="M3.66058 3.07083C3.68126 2.78961 3.61764 2.44662 3.59538 2.15421C3.57789 1.9236 3.49784 1.67806 3.38652 1.47621C3.17819 1.10018 2.77744 0.885544 2.39471 0.86424C1.96215 0.840805 1.53754 1.0613 1.27408 1.43626C1.09332 1.69298 0.995783 1.98644 0.92846 2.29003C0.836753 2.7028 0.919979 3.18374 0.645388 3.52781C0.54732 3.65031 0.341113 3.63167 0.239864 3.52887C-0.116891 3.17043 0.00662117 2.50893 0.0919668 2.06101C0.170421 1.64398 0.343233 1.23121 0.5998 0.893001C1.02918 0.326839 1.6759 -0.0198878 2.39206 0.000883909C3.07482 0.0205904 3.67807 0.389687 4.06027 0.946794C4.27602 1.26103 4.37409 1.63918 4.39371 2.0168C4.40378 2.21759 4.37091 2.41359 4.31737 2.60746C4.25535 2.83222 4.13979 2.98242 4.03801 3.17203C3.94577 3.34512 3.64574 3.27482 3.66058 3.07083" transform="translate(96.26132 85.64854)" id="Fill-336" fill="#185056" stroke="none" />
          <path d="M9.56948 1.49399C9.56948 1.49399 4.30349 6.37481 4.32788 13.0921C4.33159 14.1333 4.61572 15.1447 5.01117 16.1071C5.28417 16.7713 3.65412 18.6892 2.31563 17.5516C0.204783 15.7567 -1.09608 12.1174 1.25172 6.0169C3.59952 -0.0830569 4.18422 2.98053e-05 4.18422 2.98053e-05C4.18422 2.98053e-05 7.38177 0.503876 9.56948 1.49399" transform="translate(52.55561 80.64165)" id="Fill-338" fill="#CCAEAC" stroke="none" />
          <path d="M9.92241 0C9.92241 0 4.5133 5.22062 4.53768 11.9379C4.54139 12.9791 4.82605 13.9905 5.22151 14.953C5.49398 15.6166 3.86393 17.535 2.52543 16.3974C0.414587 14.6025 -1.36336 10.7555 1.46153 4.86271C2.37913 2.94958 3.42448 1.4194 3.42448 1.4194C3.42448 1.4194 5.99863 0.242869 9.92241 0" transform="translate(42.12666 80.39893)" id="Fill-340" fill="#CCAEAC" stroke="none" />
          <path d="M4.17378 3.46502C2.77591 4.31612 0.079837 3.89909 0.000852517 1.70262C-0.0177009 1.17108 0.268021 0.662438 0.717014 0.241678C1.74063 -0.717547 0.517167 1.43845 1.54396 2.17984C2.84641 3.11989 5.35324 2.74706 4.17378 3.46502" transform="translate(87.73868 107.1588)" id="Fill-342" fill="#D89739" stroke="none" />
          <path d="M6.17727 2.07566C6.16614 2.90227 5.75743 3.15153 4.78947 3.50731C4.34101 3.67295 3.84113 3.81995 3.29619 3.8844C2.56837 3.97068 1.87924 3.92328 1.29878 3.77202C0.370053 3.52915 0.0970532 2.99867 0.0207192 2.34569C-0.0524342 1.72307 0.036092 1.12922 0.814805 0.681292C1.3624 0.366521 2.0653 0.134304 2.8472 0.0426956C3.86445 -0.0776738 4.80697 0.0629347 5.48072 0.383032C6.06065 0.658923 6.18363 1.5814 6.17727 2.07566" transform="translate(79.57128 94.93812)" id="Fill-344" fill="#F4ABAB" stroke="none" />
          <path d="M5.59841 0.414992C4.6665 0.618448 3.73247 0.775034 2.79261 0.941207C2.31287 1.02642 1.83473 1.12336 1.35976 1.23148C0.959536 1.32255 0.533338 1.44665 0.123044 1.37155C6.11004e-05 1.34918 -0.0412864 1.17076 0.0477698 1.0898C0.357876 0.808588 0.792556 0.708991 1.19066 0.620045C1.66616 0.514057 2.14589 0.426176 2.62722 0.344155C3.59836 0.178514 4.56101 0.0735908 5.54169 0.000623631C5.77812 -0.017485 5.829 0.364394 5.59841 0.414992" transform="translate(80.63103 95.96008)" id="Fill-346" fill="#185056" stroke="none" />
          <path d="M4.18173 1.96565C4.28987 2.81995 4.64874 3.62738 4.64874 3.62738C4.18809 3.75202 3.67654 3.85428 3.12895 3.86972C2.39636 3.88996 1.71359 3.78184 1.14851 3.57892C0.244694 3.25563 0.0194026 2.70225 0.0013793 2.04501C-0.0161139 1.41813 0.123832 0.834926 0.939121 0.45784C1.51216 0.193134 2.23309 0.02483 3.01975 0.00246052C3.36273 -0.00712641 3.69457 0.0115148 4.00839 0.054656C4.00839 0.054656 4.0932 1.26847 4.18173 1.96565" transform="translate(101.593 93.25164)" id="Fill-348" fill="#F4ABAB" stroke="none" />
          <path d="M0.0807528 0.402655C0.792143 -0.119832 1.81894 -0.0298213 2.64165 0.100667C3.52638 0.239677 4.52138 0.511839 5.14689 1.19091C5.21315 1.26281 5.17392 1.41088 5.06101 1.40076C4.25633 1.33205 3.50518 1.00503 2.71852 0.837794C1.8587 0.655643 1.03546 0.748317 0.170339 0.731273C-0.0151947 0.727545 -0.0554821 0.502785 0.0807528 0.402655" transform="translate(104.0804 91.88268)" id="Fill-350" fill="#185056" stroke="none" />
          <path d="M0.111809 0.0396582C1.2494 -0.152614 2.5529 0.36668 3.23196 1.32751C3.31571 1.44574 3.17895 1.61298 3.04748 1.57038C2.56298 1.41272 2.10603 1.12192 1.64909 0.896093C1.17306 0.661212 0.631834 0.451365 0.11287 0.342712C-0.0334369 0.312354 -0.0413884 0.065756 0.111809 0.0396582" transform="translate(105.0815 94.94514)" id="Fill-352" fill="#185056" stroke="none" />
          <path d="M47.7002 24.5426C49.5164 24.4243 51.1088 25.5534 52.9487 26.3838C55.9072 27.718 56.6589 27.3563 57.0061 26.82C57.3056 26.3566 57.1227 25.9577 56.864 25.6642C59.004 26.3875 59.672 25.9923 60.017 25.4597C60.6357 24.5053 59.6115 23.7969 59.2781 23.5695C60.9569 24.0392 61.5294 23.6829 61.8358 23.2089C62.4576 22.2475 61.3667 21.504 61.0269 21.2718C60.8922 21.1802 60.4957 20.957 59.9428 20.6561C60.5699 20.6497 60.8668 20.4079 61.0539 20.1177C61.6301 19.2277 60.6203 18.539 60.3054 18.3233C59.6428 17.8716 52.1933 14.0193 52.1933 14.0193C51.219 13.5021 50.0979 13.3338 49.0159 13.5415L40.6192 15.1543L16.6901 0L0 12.5536C0 12.5536 21.1779 19.3827 25.0057 22.7061C28.0002 25.3063 30.2187 25.6642 34.2172 25.9524C34.9175 26.003 40.0144 26.0914 40.6871 25.8879C42.1072 25.4586 44.8679 24.7263 47.7002 24.5426" transform="translate(15.2122 94.93384)" id="Fill-354" fill="#F9E8DE" stroke="none" />
          <path d="M9.05949 4.34298C9.05949 4.34298 3.38692 0.258949 2.54088 0.137514C2.07546 0.0709383 1.03223 0.0267319 0.187782 0.000101549C-0.0226665 -0.00628974 -0.0740859 0.290905 0.125761 0.355883L2.63789 0.671719L9.05949 4.34298Z" transform="translate(63.0168 116.2553)" id="Fill-356" fill="#E2A181" stroke="none" />
          <path d="M9.39745 3.60336C9.39745 3.60336 3.38085 0.0503385 2.52686 0.0061321C2.05719 -0.0178352 1.01502 0.0327625 0.17164 0.0833602C-0.0388082 0.0956102 -0.0637228 0.396533 0.141425 0.44287L2.67158 0.529685L9.39745 3.60336Z" transform="translate(64.9856 114.8302)" id="Fill-358" fill="#E2A181" stroke="none" />
          <path d="M9.39745 3.60336C9.39745 3.60336 3.38032 0.0503385 2.52686 0.0061321C2.05719 -0.0178352 1.01502 0.0327625 0.17164 0.0833602C-0.0388082 0.0956102 -0.0637228 0.396533 0.141425 0.44287L2.67158 0.529685L9.39745 3.60336Z" transform="translate(65.64669 111.9992)" id="Fill-360" fill="#E2A181" stroke="none" />
          <path d="M13.8646 26.3696C28.1841 31.505 42.5762 33.0134 42.5762 33.0134L47.0428 12.6347C47.0428 12.6347 45.5601 9.63668 28.0351 3.10958C22.995 1.23267 9.39161 -2.77999 3.91147 3.00892C-4.52343 11.9184 1.54989 21.9527 13.8646 26.3696" transform="translate(0.1184943 87.87332)" id="Fill-362" fill="#FFBB49" stroke="none" />
          <path d="M5.99593 0L11.1479 1.62179L5.48279 24.1442L0 24.632L5.99593 0Z" transform="translate(39.68269 97.51)" id="Fill-364" fill="#F7F6F5" stroke="none" />
          <path d="M0 0C0 0 14.1912 5.14978 18.3827 7.19446C22.5742 9.23914 30.5331 13.9991 30.5331 13.9991L31.3202 10.7635C31.3202 10.7635 14.3768 0 0 0" transform="translate(14.055 87.99274)" id="Fill-366" fill="#F5883D" stroke="none" />
        </g>
      </g>
    </g>
  </g>
</svg>